<svg id="Réteg_1" data-name="Réteg 1" xmlns="http://www.w3.org/2000/svg" viewBox="0 0 438.02519 83.43681"><defs><style>.cls-1,.cls-2{fill:#dc8c0b;}.cls-2{font-size:72px;font-family:MyriadPro-Regular, Myriad Pro;}.cls-3{letter-spacing:-0.025em;}</style></defs><path class="cls-1" d="M983.0147,547.69006c.1174,0,.2357.0042.3539.0127.6299-.0115,6.2585.0907,10.108,7.0387a19.427,19.427,0,0,0,4.49219,5.5366l.22591.1835a7.24072,7.24072,0,0,0,6.8294,1.2674,6.692,6.692,0,0,0,4.49469-4.7007q.07067-.26505.12331-.5375a5.87779,5.87779,0,0,0-1.141-4.6875c-1.4971-1.9931-3.4842-2.8747-5.4586-2.4182a4.66033,4.66033,0,0,0-3.5024,3.6821,3.51086,3.51086,0,0,0,.6506,2.7238,3.1579,3.1579,0,0,0,3.2248,1.4861,2.69744,2.69744,0,0,0,2.0401-2.1393,2.02258,2.02258,0,0,0-1.5662-2.3736l.3026-1.5327a3.588,3.588,0,0,1,2.79879,4.1988,4.26119,4.26119,0,0,1-3.229,3.3706,4.7016,4.7016,0,0,1-4.82909-2.0833,5.0778,5.0778,0,0,1-.927-3.9437,6.22269,6.22269,0,0,1,4.6846-4.9113c2.5648-.5939,5.203.529,7.0604,3.0022a7.42427,7.42427,0,0,1,1.4259,5.9227q-.063.32625-.148.6431a8.22729,8.22729,0,0,1-5.5221,5.7845,8.79193,8.79193,0,0,1-8.2981-1.5416l-.20861-.17a20.7377,20.7377,0,0,1-4.88719-6.0003c-3.5422-6.3928-8.6774-6.2351-8.7283-6.2381l-.0487.0022-.04881-.0038a3.31156,3.31156,0,0,0-2.42149.7883,3.43035,3.43035,0,0,0-1.1958,2.3618,2.57988,2.57988,0,0,0,2.3055,2.7853,1.784,1.784,0,0,0,1.3915-.5265,1.716,1.716,0,0,0,.5646-1.8158,1.35208,1.35208,0,0,0-1.1538-.8948l.12549-1.5573a2.91793,2.91793,0,0,1,2.49791,1.921,3.25289,3.25289,0,0,1-.9427,3.4651,3.36883,3.36883,0,0,1-2.6221.9647,4.14839,4.14839,0,0,1-3.7245-4.4629,4.98328,4.98328,0,0,1,1.7396-3.4295A4.85357,4.85357,0,0,1,983.0147,547.69006Z" transform="translate(-759.9122 -482.81445)"/><path class="cls-1" d="M974.745,547.69006a4.85089,4.85089,0,0,1,3.16379,1.1728,4.98314,4.98314,0,0,1,1.73951,3.4295,4.14792,4.14792,0,0,1-3.72451,4.4629,3.38161,3.38161,0,0,1-2.62159-.9647,3.25128,3.25128,0,0,1-.9427-3.4647,2.91656,2.91656,0,0,1,2.4974-1.9214l.1255,1.5573a1.35106,1.35106,0,0,0-1.1534.8948,1.71509,1.71509,0,0,0,.5651,1.8158,1.79576,1.79576,0,0,0,1.39069.5265,2.57954,2.57954,0,0,0,2.30541-2.7853,3.43064,3.43064,0,0,0-1.1957-2.3618,3.29567,3.29567,0,0,0-2.4216-.7883l-.0487.0038-.0488-.0022c-.2085.0013-5.2115-.1089-8.7257,6.2335a20.75529,20.75529,0,0,1-4.9076,6.0189l-.19031.1556a8.79578,8.79578,0,0,1-8.29849,1.542,8.227,8.227,0,0,1-5.5222-5.785q-.08385-.31665-.1475-.6417a7.42568,7.42568,0,0,1,1.4255-5.9236c1.8578-2.4741,4.4968-3.5973,7.0608-3.0022a6.22343,6.22343,0,0,1,4.6846,4.9113,5.07971,5.07971,0,0,1-.9274,3.9437,4.70923,4.70923,0,0,1-4.82831,2.0833,4.26133,4.26133,0,0,1-3.22989-3.3706,3.58848,3.58848,0,0,1,2.7992-4.1988l.30269,1.5327a2.0226,2.0226,0,0,0-1.56669,2.3736,2.69882,2.69882,0,0,0,2.0401,2.1393,3.15927,3.15927,0,0,0,3.2248-1.4861,3.51283,3.51283,0,0,0,.6511-2.7238,4.66092,4.66092,0,0,0-3.5029-3.6821c-1.9722-.4582-3.96141.4243-5.4586,2.4182a5.87978,5.87978,0,0,0-1.141,4.6867q.05278.27345.1238.5392a6.691,6.691,0,0,0,4.4942,4.6998,7.23584,7.23584,0,0,0,6.8298-1.2678l.2077-.1691a19.43809,19.43809,0,0,0,4.5125-5.5552c3.8483-6.946,9.4578-7.0545,10.1059-7.0341C974.5094,547.69426,974.6276,547.69006,974.745,547.69006Z" transform="translate(-759.9122 -482.81445)"/><path class="cls-1" d="M978.8794,556.39966a2.496,2.496,0,0,1,2.4848,2.0935v.0004c.55859,2.8853-1.726,6.5543-1.8235,6.709l-.6608,1.0487-.6608-1.0487c-.098-.1547-2.3822-3.8237-1.8231-6.7094A2.49571,2.49571,0,0,1,978.8794,556.39966Zm.95039,2.3911a.95857.95857,0,0,0-1.89939-.0005,7.83661,7.83661,0,0,0,.9495,4.3455,7.83763,7.83763,0,0,0,.94989-4.3455Z" transform="translate(-759.9122 -482.81445)"/><path class="cls-1" d="M766.586,554.39306a4.85544,4.85544,0,0,1,.9542.0903,2.55983,2.55983,0,0,1,0,5.0233h0c-2.8506.5739-6.47-1.757-6.623-1.8566l-1.005-.6549,1.005-.6544A12.37583,12.37583,0,0,1,766.586,554.39306Zm.6473,3.5817a.99763.99763,0,0,0,0-1.9595,7.6616,7.6616,0,0,0-4.287.9799,7.64486,7.64486,0,0,0,4.287.9796Z" transform="translate(-759.9122 -482.81445)"/><path class="cls-1" d="M772.5232,556.20556q.09405,0,.189.0063h.0102c.4895,0,3.3765.1552,5.3386,3.697a9.22766,9.22766,0,0,0,2.1253,2.6267l.1216.0988a3.2019,3.2019,0,0,0,3.0197.5591,2.934,2.934,0,0,0,1.97219-2.06c.02121-.0801.03951-.1594.05511-.2399a2.53164,2.53164,0,0,0-.4946-2.0168,2.26656,2.26656,0,0,0-2.3059-1.0533,1.92031,1.92031,0,0,0-1.4415,1.5187,1.34848,1.34848,0,0,0,.25389,1.0448,1.17842,1.17842,0,0,0,1.19651.5875.94582.94582,0,0,0,.7134-.7519.6097.6097,0,0,0-.4667-.7189l.30179-1.5327a2.176,2.176,0,0,1,1.70021,2.544,2.50911,2.50911,0,0,1-1.9028,1.9833,2.71658,2.71658,0,0,1-2.8005-1.1847,2.91234,2.91234,0,0,1-.5302-2.2647,3.48245,3.48245,0,0,1,2.62329-2.7475,3.80412,3.80412,0,0,1,3.908,1.637,4.12945,4.12945,0,0,1,.77951,3.2514c-.0224.1166-.0491.2332-.0801.3472a4.52824,4.52824,0,0,1-2.9993,3.143,4.75927,4.75927,0,0,1-4.4887-.8342l-.1043-.0852a10.68347,10.68347,0,0,1-2.5199-3.09,5.2686,5.2686,0,0,0-3.3261-2.8107,1.85344,1.85344,0,0,1,.707.9071,1.9962,1.9962,0,0,1-.5637,2.1346,2.06834,2.06834,0,0,1-1.6103.5896,2.45471,2.45471,0,0,1-2.2067-2.6386,2.86366,2.86366,0,0,1,.9999-1.9701A2.79915,2.79915,0,0,1,772.5232,556.20556Zm-.4498,3.7304a.52593.52593,0,0,0,.3493-.1521.47791.47791,0,0,0,.1857-.4866.27888.27888,0,0,0-.2344-.1857l.108-1.3428a1.25354,1.25354,0,0,0-.7706.3022,1.31118,1.31118,0,0,0-.456.9033.88628.88628,0,0,0,.7871.9605C772.0527,559.93556,772.06279,559.936,772.0734,559.936Z" transform="translate(-759.9122 -482.81445)"/><path class="cls-1" d="M782.3251,549.063a4.804,4.804,0,0,1,1.4853.2361,4.52911,4.52911,0,0,1,2.9993,3.1446c.0305.1128.0572.2289.0796.3472a4.12561,4.12561,0,0,1-.77951,3.2494,3.80667,3.80667,0,0,1-3.908,1.6374,3.48328,3.48328,0,0,1-2.62329-2.7475,2.91266,2.91266,0,0,1,.5302-2.2648,2.71679,2.71679,0,0,1,2.8005-1.1847,2.50924,2.50924,0,0,1,1.9028,1.9833,2.17681,2.17681,0,0,1-1.6998,2.5441l-.3026-1.5328a.61006.61006,0,0,0,.4671-.7188.946.946,0,0,0-.7134-.752,1.17994,1.17994,0,0,0-1.19651.5875,1.34848,1.34848,0,0,0-.25389,1.0448,1.92043,1.92043,0,0,0,1.4415,1.5188,2.26878,2.26878,0,0,0,2.3059-1.0538,2.52863,2.52863,0,0,0,.4946-2.0151c-.0156-.0826-.0339-.1614-.0546-.2394a2.93564,2.93564,0,0,0-1.9723-2.0622,3.20423,3.20423,0,0,0-3.0209.5604l-.1026.0835a9.24538,9.24538,0,0,0-2.146,2.6458c-1.97271,3.5609-4.8775,3.6652-5.3463,3.6923a2.78587,2.78587,0,0,1-2.0151-.6706,2.86354,2.86354,0,0,1-.9999-1.9705,2.45413,2.45413,0,0,1,2.2063-2.6382,2.06613,2.06613,0,0,1,1.6107.5892,1.99769,1.99769,0,0,1,.5637,2.1354,1.85341,1.85341,0,0,1-.7087.9076,5.25971,5.25971,0,0,0,3.3252-2.8069,10.70577,10.70577,0,0,1,2.5407-3.1091l.0852-.0699A4.753,4.753,0,0,1,782.3251,549.063Zm-9.8431,7.1472-.108-1.3428a.27754.27754,0,0,0,.2339-.1856.47623.47623,0,0,0-.1852-.4866.51786.51786,0,0,0-.3806-.1509.88549.88549,0,0,0-.7867.96,1.31127,1.31127,0,0,0,.456.9037A1.25237,1.25237,0,0,0,772.482,556.21016Z" transform="translate(-759.9122 -482.81445)"/><rect class="cls-1" x="23.2878" y="73.39361" width="164.1224" height="1.5624"/><path class="cls-1" d="M1191.26269,554.39306a12.37748,12.37748,0,0,1,5.6693,1.9473l1.0054.6548-1.0054.6549c-.1526.0996-3.7657,2.4305-6.6234,1.8566h0a2.55993,2.55993,0,0,1,0-5.0233A4.85443,4.85443,0,0,1,1191.26269,554.39306Zm3.6419,2.603a7.67169,7.67169,0,0,0-4.2891-.9808.99763.99763,0,0,0,0,1.9595h0A7.63924,7.63924,0,0,0,1194.90459,556.99606Z" transform="translate(-759.9122 -482.81445)"/><path class="cls-1" d="M1185.326,556.20556a2.7995,2.7995,0,0,1,1.8252.6765,2.86485,2.86485,0,0,1,1.0008,1.971,2.45476,2.45476,0,0,1-2.2063,2.6381,2.102,2.102,0,0,1-1.6111-.5896,1.9968,1.9968,0,0,1-.5633-2.135,1.85236,1.85236,0,0,1,.7083-.9075,5.26,5.26,0,0,0-3.3249,2.8068,10.70264,10.70264,0,0,1-2.5406,3.1091l-.0852.07a4.75791,4.75791,0,0,1-4.4897.835,4.5305,4.5305,0,0,1-3.0001-3.1443c-.0301-.114-.0564-.228-.0793-.3437a4.13069,4.13069,0,0,1,.7791-3.2536,3.80544,3.80544,0,0,1,3.9089-1.637,3.48275,3.48275,0,0,1,2.6225,2.7475,2.91374,2.91374,0,0,1-.5298,2.2647,2.72087,2.72087,0,0,1-2.801,1.1847,2.50861,2.50861,0,0,1-1.9023-1.9833,2.17531,2.17531,0,0,1,1.7002-2.544l.3017,1.5327a.60951.60951,0,0,0-.4666.7185.94521.94521,0,0,0,.7129.7523,1.17792,1.17792,0,0,0,1.197-.5875,1.34932,1.34932,0,0,0,.2535-1.0448,1.92,1.92,0,0,0-1.4412-1.5187,2.26845,2.26845,0,0,0-2.3062,1.0533,2.52957,2.52957,0,0,0-.4947,2.0155c.0157.0805.0343.1623.0555.2424a2.93374,2.93374,0,0,0,1.9723,2.0588,3.19965,3.19965,0,0,0,3.0205-.56l.1026-.0835a9.24693,9.24693,0,0,0,2.146-2.6457c1.9727-3.5614,4.8546-3.7072,5.3463-3.6924C1185.20009,556.20766,1185.26329,556.20556,1185.326,556.20556Zm.4502,3.7304.0309-.0012a.88612.88612,0,0,0,.7867-.9601,1.31356,1.31356,0,0,0-.4565-.9041,1.25085,1.25085,0,0,0-.7706-.3018l.1081,1.3428a.27749.27749,0,0,0-.234.1857.47671.47671,0,0,0,.1853.4862A.52543.52543,0,0,0,1185.77619,559.936Z" transform="translate(-759.9122 -482.81445)"/><path class="cls-1" d="M1175.52409,549.063a4.75145,4.75145,0,0,1,3.0039,1.0702l.1043.0852a10.68482,10.68482,0,0,1,2.5199,3.09,5.26626,5.26626,0,0,0,3.3257,2.8103,1.8506,1.8506,0,0,1-.7066-.9058,1.997,1.997,0,0,1,.5629-2.1355,2.08315,2.08315,0,0,1,1.6111-.5896,2.45429,2.45429,0,0,1,2.2067,2.6386,2.865,2.865,0,0,1-1.0008,1.9706,2.79338,2.79338,0,0,1-2.0142.6701h-.0102c-.4896,0-3.3765-.1551-5.3386-3.697a9.234,9.234,0,0,0-2.1253-2.6267l-.1217-.0988a3.20156,3.20156,0,0,0-3.02-.5595,2.93434,2.93434,0,0,0-1.9723,2.0609c-.0208.0784-.0394.1594-.0555.242a2.52834,2.52834,0,0,0,.4951,2.0138,2.26147,2.26147,0,0,0,2.3067,1.0533,1.91894,1.91894,0,0,0,1.4407-1.5183,1.34942,1.34942,0,0,0-.2535-1.0448,1.18022,1.18022,0,0,0-1.197-.5875.94538.94538,0,0,0-.7129.752.60955.60955,0,0,0,.4671.7188l-.3027,1.5328a2.17557,2.17557,0,0,1-1.6993-2.5445,2.50764,2.50764,0,0,1,1.9019-1.9829,2.7168,2.7168,0,0,1,2.801,1.1847,2.914,2.914,0,0,1,.5298,2.2648,3.48289,3.48289,0,0,1-2.6225,2.7475,3.80859,3.80859,0,0,1-3.9089-1.6374,4.128,4.128,0,0,1-.7795-3.2511c.0233-.1178.0496-.2319.0793-.3442a4.52923,4.52923,0,0,1,3.0005-3.1459A4.79964,4.79964,0,0,1,1175.52409,549.063Zm9.8426,7.1472a1.25026,1.25026,0,0,0,.7706-.3018,1.31346,1.31346,0,0,0,.4565-.9036.88568.88568,0,0,0-.7871-.9605.50969.50969,0,0,0-.3815.1513.47732.47732,0,0,0-.1844.4862.27876.27876,0,0,0,.234.1856Z" transform="translate(-759.9122 -482.81445)"/><rect class="cls-1" x="250.61409" y="73.39361" width="164.12249" height="1.5624"/><text class="cls-2" transform="translate(15.33487 60.26416)">H</text><text class="cls-2" transform="translate(62.27823 60.26416) scale(0.7)"><tspan class="cls-3">O</tspan><tspan x="47.80832" y="0">TEL</tspan></text><text class="cls-2" transform="translate(169.37686 60.26416)"><tspan xml:space="preserve"> N</tspan></text><text class="cls-2" transform="translate(232.01553 60.26416) scale(0.7)">OWHERE</text></svg>