<?xml version="1.0" encoding="utf-8"?>
<!-- Generator: Adobe Illustrator 24.2.0, SVG Export Plug-In . SVG Version: 6.00 Build 0)  -->
<svg version="1.1" id="RÃ_xA9_teg_x5F_1" xmlns="http://www.w3.org/2000/svg" xmlns:xlink="http://www.w3.org/1999/xlink" x="0px"
	 y="0px" viewBox="0 0 858.6 494.6" style="enable-background:new 0 0 858.6 494.6;" xml:space="preserve">
<style type="text/css">
	.st0{fill:#FF9E00;stroke:#000000;stroke-width:3;}
	.st1{fill-rule:evenodd;clip-rule:evenodd;fill:#1C6CAE;stroke:#000000;stroke-width:3;}
</style>
<path class="st0" d="M127.4,125.8L8,245.1l119.7,119.7l119.6,119.6v-79.1l-80.1-80.1l-80-80.1l80.2-80.2l80.1-80.1l-0.4-39.2
	l-0.4-39.2L127.4,125.8z"/>
<path class="st0" d="M612.1,45.6v39.6l80.1,80.1l80.2,80.2l-80.2,80.2l-80.1,80.1v79.1L731.7,365l119.7-119.6L731.7,125.7L612.1,6
	V45.6z"/>
<path class="st1" d="M618.7,278.4h-15.6c-2.6,2.8-5.2,5.7-7.8,8.5c2.6-0.1,3.3,0.5,4.3,1.9c-0.3,0.3-0.5,0.6-0.7,1
	c-7.7,6.3-15.3,12.6-23,18.9c-2.7,2.1-5.7,7-10.7,4.8c-1.7-0.8-9.3-5.5-9.8-7.1c-0.7-2.2,0.1-5.3,0.6-7.3c1.5-7.5,3.1-15,4.6-22.6
	c2.8-5,10.6-8.2,16.5-9.8c-1.4-1.2-0.8-14.8-0.7-18.1h2v-5.2h-2v-18.1h1.1v-0.2h-0.4c-5.1-3.2-12.2-3.7-15.7-8.5
	c-3.3-4.4-3.3-13.3-4.6-19.5c-0.7-3.1-3.4-11.1-0.7-13.5c1.7-1.5,9.7-6.9,12.8-6.2c4.1,1,14.8,12.1,18.7,15.2
	c3.9,3.2,7.9,6.4,11.8,9.6c-0.6,0.8-1.2,1.5-1.8,2.3h-2.4c2.6,2.8,5.2,5.5,7.8,8.3h15.9c0.1-12.1,1.4-27.4-0.6-38.4
	c-0.9-4.4-1.7-8.9-2.6-13.3c-0.7-2.6-1.5-5.1-2.2-7.7c1.1-1.8,15.6-12.1,18-12.9c2.2-0.7,4.6-0.4,6.7,0.8
	c18.3,19.1,36.7,38.3,55,57.5c4.1-0.1,10.1-0.7,12.8,1c-0.1,0.5-0.2,0.9-0.4,1.4c-2.5,0.7-6.4,0.6-9.6,0.6c0.5,0.5,1,1,1.5,1.5
	c3.3,3.6,6.7,7.2,10,10.8c4.6,0.4,9.1,0.8,13.7,1.2c4.6,1,9.1,2.1,13.7,3.1c2.3,1,4.7,2.1,7,3.1h7.8c6.5,0,12.3,0,17.2,1.5
	c-0.1,4.1-0.1,8.2-0.2,12.3c-1.2,0.2-2.3,0.4-3.5,0.6c25-0.2,52.9-1.5,72.1,4.4c5.2,1.6,12.1,2.4,16.1,5.6v0.2c-5,1.9-10,3.7-15,5.6
	c-7.2,2.2-14.9,2.9-23.1,4.2c-16.6,0.1-33.1,0.1-49.7,0.2c1.1,0.2,2.2,0.4,3.3,0.6V269c-5.2,0.3-10.2,1.2-16.3,1.2
	c-3-0.1-5.9-0.1-8.9-0.2c-1.8,0.7-3.9,2.4-5.9,3.3c-7.9,3.2-18.2,3.8-28.7,3.9c-3.7,4-7.4,8-11.1,12c3.5-0.1,7.9-0.4,10,1
	c-0.1,0.5-0.2,0.9-0.4,1.4c-3.3,1-8.5,0.6-12.6,0.6c-18.3,19.2-36.6,38.3-54.8,57.5c-6.3,4-15.2-5.1-19.3-7.9
	c-1.8-1.2-5.1-2.3-5.4-5C619.4,321.4,618.7,300,618.7,278.4z"/>
<path id="TÃ_xA9_glalap_x5F_1" class="st1" d="M534.3,31.1l52.5,32.6L325.3,484.4l-52.5-32.6L534.3,31.1z"/>
<path d="M-65.9,467.1"/>
</svg>
