<?xml version="1.0" encoding="utf-8"?>
<!-- Generator: Adobe Illustrator 24.2.0, SVG Export Plug-In . SVG Version: 6.00 Build 0)  -->
<svg version="1.1" id="RÃ_xA9_teg_x5F_1" xmlns="http://www.w3.org/2000/svg" xmlns:xlink="http://www.w3.org/1999/xlink" x="0px"
	 y="0px" viewBox="0 0 1598.2 1579.1" style="enable-background:new 0 0 1598.2 1579.1;" xml:space="preserve">
<style type="text/css">
	.st0{fill:white;stroke:white;stroke-width:10;}
	.st1{fill-rule:evenodd;clip-rule:evenodd;fill:white;stroke:white;stroke-width:10;}
	.st2{fill-rule:evenodd;clip-rule:evenodd;fill:none;stroke:white;stroke-width:120;}
	.st3{fill-rule:evenodd;clip-rule:evenodd;fill:orangered; stroke:black; stroke-width:3;}
</style>
<path class="st0" d="M416,634.9l-158.1,158l158.5,158.5l158.4,158.4v-104.8L468.7,899l-106-106.1L469,686.7l106.1-106.1l-0.5-51.9
	l-0.5-51.9L416,634.9z"/>
<path class="st0" d="M1014.2,529v52.2L1119.9,687l105.8,105.8l-105.8,105.8l-105.7,105.7v104.4L1172,950.5L1330,792.7L1172,634.7
	l-157.8-157.9V529z"/>
<path id="TÃ_xA9_glalap_x5F_1" class="st1" d="M903.3,581.3l54.1,33.8L686,1048.6l-54.1-33.8L903.3,581.3z"/>
<ellipse class="st2" cx="790.4" cy="794.1" rx="681.8" ry="687"/>
<path class="st3" d="M1027.2,835.6h-20.3c-3.4,3.6-6.8,7.4-10.1,11.1c3.4-0.1,4.3,0.7,5.6,2.5c-0.4,0.4-0.7,0.8-0.9,1.3
	c-10,8.2-19.9,16.4-29.9,24.6c-3.5,2.7-7.4,9.1-13.9,6.2c-2.2-1-12.1-7.2-12.8-9.2c-0.9-2.9,0.1-6.9,0.8-9.5c2-9.8,4-19.5,6-29.4
	c3.6-6.5,13.8-10.7,21.5-12.8c-1.8-1.6-1-19.3-0.9-23.6h2.6v-6.8h-2.6v-23.6h1.4v-0.3h-0.5c-6.6-4.2-15.9-4.8-20.4-11.1
	c-4.3-5.7-4.3-17.3-6-25.4c-0.9-4-4.4-14.4-0.9-17.6c2.2-2,12.6-9,16.7-8.1c5.3,1.3,19.3,15.7,24.3,19.8c5.1,4.2,10.3,8.3,15.4,12.5
	c-0.8,1-1.6,2-2.3,3h-3.1c3.4,3.6,6.8,7.2,10.1,10.8h20.7c0.1-15.7,1.8-35.7-0.8-50c-1.2-5.7-2.2-11.6-3.4-17.3
	c-0.9-3.4-2-6.6-2.9-10c1.4-2.3,20.3-15.7,23.4-16.8c2.9-0.9,6-0.5,8.7,1c23.8,24.9,47.8,49.8,71.6,74.8c5.3-0.1,13.1-0.9,16.7,1.3
	c-0.1,0.7-0.3,1.2-0.5,1.8c-3.3,0.9-8.3,0.8-12.5,0.8c0.7,0.7,1.3,1.3,2,2c4.3,4.7,8.7,9.4,13,14.1c6,0.5,11.8,1,17.8,1.6
	c6,1.3,11.8,2.7,17.8,4c3,1.3,6.1,2.7,9.1,4h10.1c8.5,0,16,0,22.4,2c-0.1,5.3-0.1,10.7-0.3,16c-1.6,0.3-3,0.5-4.6,0.8
	c32.5-0.3,68.8-2,93.8,5.7c6.8,2.1,15.7,3.1,20.9,7.3v0.3c-6.5,2.5-13,4.8-19.5,7.3c-9.4,2.9-19.4,3.8-30.1,5.5
	c-21.6,0.1-43.1,0.1-64.7,0.3c1.4,0.3,2.9,0.5,4.3,0.8v16c-6.8,0.4-13.3,1.6-21.2,1.6c-3.9-0.1-7.7-0.1-11.6-0.3
	c-2.3,0.9-5.1,3.1-7.7,4.3c-10.3,4.2-23.7,4.9-37.3,5.1c-4.8,5.2-9.6,10.4-14.4,15.6c4.6-0.1,10.3-0.5,13,1.3
	c-0.1,0.7-0.3,1.2-0.5,1.8c-4.3,1.3-11.1,0.8-16.4,0.8c-23.8,25-47.6,49.8-71.3,74.8c-8.2,5.2-19.8-6.6-25.1-10.3
	c-2.3-1.6-6.6-3-7-6.5C1028.1,891.6,1027.2,863.7,1027.2,835.6z"/>
</svg>
