<svg id="Réteg_1" data-name="Réteg 1" xmlns="http://www.w3.org/2000/svg" viewBox="0 0 1018.72559 823.21063"><defs><style>.cls-1{fill:#c18a00;fill-rule:evenodd;}.cls-2,.cls-3,.cls-4,.cls-5,.cls-6,.cls-7,.cls-8,.cls-9{isolation:isolate;}.cls-3,.cls-4,.cls-5{font-size:126px;font-family:Roboto-Medium, Roboto;font-weight:500;}.cls-3{letter-spacing:-0.008em;}.cls-5{letter-spacing:-0.01em;}.cls-6,.cls-7,.cls-8,.cls-9{font-size:113.09277px;font-family:Roboto-BoldItalic, Roboto;font-weight:700;font-style:italic;}.cls-6{letter-spacing:-0.012em;}.cls-7{letter-spacing:-0.017em;}.cls-9{letter-spacing:-0.01235em;}.cls-10{letter-spacing:-0.006em;}.cls-11{fill:#fff;}</style></defs><path d="M173.27612,146.78246,53.94327,266.11533l119.739,119.739L293.28784,505.45991V426.34913L213.23761,346.2989,133.054,266.11533l80.18361-80.18357,80.05023-80.05024-.26666-39.28868-.4-39.15533Z" transform="translate(0 0.35223)"/><path d="M708.55261,66.65948v39.55537l80.0503,80.05023,80.18359,80.1836-80.18359,80.18359L708.55273,426.6825v79.11078l119.6056-119.739,119.739-119.60565L828.15833,146.843,708.55273,27.104Z" transform="translate(0 0.35223)"/><path class="cls-1" d="M708.41931,299.46668H692.85913q-3.8876,4.24-7.786,8.48487c2.566-.11585,3.28345.48748,4.27148,1.9226-.25585.32859-.50122.64689-.74414.96634q-11.49417,9.4542-22.97229,18.8992c-2.67846,2.14106-5.73913,7.022-10.74707,4.82319-1.7417-.76386-9.28369-5.54233-9.8136-7.13776-.7246-2.20215.11573-5.26279.55689-7.32474q2.30558-11.286,4.632-22.56317c2.82739-4.96457,10.61438-8.21445,16.48181-9.832-1.37439-1.17908-.78027-14.821-.73425-18.12647h2.02868v-5.20507H666.004v-18.1276h1.09619v-.1936H666.738c-5.057-3.20975-12.21582-3.7319-15.743-8.48715-3.292-4.42438-3.26294-13.2677-4.627-19.47358-.684-3.05833-3.4491-11.13235-.7439-13.50164,1.69983-1.47185,9.65589-6.94623,12.77552-6.16574,4.10449,1.01989,14.83,12.1322,18.72033,15.2341q5.92237,4.81943,11.84851,9.637c-.6123.77594-1.23132,1.54868-1.84777,2.32141H684.7066q3.89245,4.14672,7.78077,8.28674H708.419c.08874-12.05648,1.368-27.442-.55884-38.36618-.85327-4.44241-1.72473-8.87228-2.58533-13.309-.74634-2.5752-1.488-5.14151-2.22778-7.71784,1.0769-1.84805,15.57178-12.07428,17.9707-12.91381a8.422,8.422,0,0,1,6.66516.7716q27.50538,28.71954,55.01843,57.46466c4.10645-.07684,10.14-.6658,12.78211.95081-.12207.45422-.24841.90613-.36829,1.35827-2.4707.73923-6.35034.601-9.63049.58442q.74524.76172,1.47522,1.5375,5.00648,5.40768,10.00513,10.80055,6.85308.578,13.71118,1.15467,6.85346,1.54149,13.70691,3.08163c2.34021,1.02765,4.689,2.06421,7.03991,3.08844h7.77613c6.51306,0,12.309.00888,17.2312,1.54663q-.08973,6.16052-.182,12.33466c-1.17981.19928-2.34875.38193-3.52417.58783,24.95166-.16236,52.93518-1.533,72.06543,4.42349,5.24561,1.63989,12.097,2.43588,16.11353,5.59683v.19245q-7.49909,2.79739-15.00879,5.59024c-7.22827,2.22793-14.93591,2.94253-23.149,4.244q-24.82544.10024-49.65307.19265c1.11767.18924,2.2246.38626,3.338.57892v12.34265c-5.22412.29938-10.153,1.15012-16.29761,1.15012-2.963-.05905-5.93494-.12131-8.896-.18265-1.81555.69476-3.871,2.445-5.92858,3.27-7.86841,3.17419-18.17334,3.83771-28.71143,3.86212q-5.55615,5.972-11.11206,11.953c3.48132-.08117,7.85767-.36621,9.99878.962-.12207.45648-.24841.89951-.36829,1.35394-3.27563.95059-8.457.599-12.5935.57892q-27.42033,28.726-54.83863,57.459c-6.32251,4.00235-15.23034-5.08359-19.264-7.90482-1.77283-1.24039-5.07874-2.30136-5.37195-5.02133C709.10229,342.4643,708.39233,321.08131,708.41931,299.46668Z" transform="translate(0 0.35223)"/><path d="M665.38,5.27A35.31763,35.31763,0,0,0,651.72473.34534C649.81116.33832,647.897.3172,645.98151.263c-.89759-.02539-1.795-.05676-2.69251-.08557A35.36627,35.36627,0,0,0,616.64,16.81L321.49,494.96a35.42085,35.42085,0,0,0,60.27,37.23l.01-.02L676.93,54.01A35.428,35.428,0,0,0,665.38,5.27Z" transform="translate(0 0.35223)"/><g class="cls-2"><text class="cls-3" transform="translate(197.18701 656.3465)">A</text><text class="cls-4" transform="translate(279.99756 656.3465)">ttila </text><text class="cls-5" transform="translate(527.69092 656.3465)">F</text><text class="cls-4" transform="translate(595.61279 656.3465)">edor</text></g><g class="cls-2"><text class="cls-6" transform="translate(0 792.56281)">F</text><text class="cls-7" transform="translate(59.19678 792.56281)">r</text><text class="cls-8" transform="translate(97.79639 792.56281)">ont-end D</text><text class="cls-9" transform="translate(587 792.56281)">e<tspan class="cls-10" x="58.46338" y="0">v</tspan></text><text class="cls-8" transform="translate(701.41797 792.56281)">eloper</text></g><rect class="cls-11" x="304.87213" y="512.47704" width="71.08432" height="46.25727" transform="translate(283.62465 -96.12615) rotate(27.30481)"/><path class="cls-11" d="M680.43842.08734a4.581,4.581,0,0,1-.9328.1037,17.09351,17.09351,0,0,1-3.99628-.37671,5.15232,5.15232,0,0,1-1.61609.27557c-9.31238.0365-18.59808.43659-27.91174.1731-4.54743-.12866-9.09333-.31885-13.64228-.39191-3.41491-.05481-6.9356.30689-10.32159-.22332L612.91248,17.285l67.83483,35.01941,21.21936-41.10327Z" transform="translate(0 0.35223)"/></svg>