<svg id="Réteg_1" data-name="Réteg 1" xmlns="http://www.w3.org/2000/svg" viewBox="0 0 1017.37305 801.82813"><defs><style>.cls-1,.cls-10,.cls-11,.cls-12,.cls-3,.cls-4,.cls-5,.cls-6,.cls-7,.cls-8{fill:#fff;}.cls-2{fill:#fc9500;}.cls-12,.cls-2{stroke:#fff;fill-rule:evenodd;}.cls-10,.cls-11,.cls-3,.cls-4,.cls-5,.cls-6,.cls-7,.cls-8,.cls-9{isolation:isolate;}.cls-3,.cls-4,.cls-5{font-size:126px;}.cls-10,.cls-11,.cls-3,.cls-4,.cls-5,.cls-6,.cls-7,.cls-8{font-family:ArialMT, Arial;}.cls-3{letter-spacing:-0.06317em;}.cls-5{letter-spacing:-0.01em;}.cls-10,.cls-11,.cls-6,.cls-7,.cls-8{font-size:113.09277px;}.cls-6{letter-spacing:-0.012em;}.cls-7{letter-spacing:-0.017em;}.cls-10{letter-spacing:-0.012em;}.cls-11{letter-spacing:-0.006em;}.cls-12{stroke-width:3px;}</style></defs><path class="cls-1" d="M173.27612,119.67846,53.94327,239.01133l119.739,119.739L293.28784,478.3559V399.24512l-80.05023-80.05023L133.054,239.01133l80.18361-80.18357,80.05023-80.05024-.26666-39.28868-.4-39.15533Z"/><path class="cls-1" d="M708.55261,39.55548V79.11084l80.0503,80.05024,80.18359,80.18359-80.18359,80.18359L708.55273,399.5785v79.11077l119.6056-119.739,119.739-119.60565L828.15833,119.739,708.55273,0Z"/><path class="cls-2" d="M708.41931,272.36267H692.85913q-3.8876,4.24-7.786,8.48487c2.566-.11585,3.28345.48749,4.27148,1.92261-.25585.32858-.50122.64688-.74414.96633q-11.49417,9.4542-22.97229,18.8992c-2.67846,2.14106-5.73913,7.022-10.74707,4.82319-1.7417-.76386-9.28369-5.54233-9.8136-7.13776-.7246-2.20215.11573-5.26279.55689-7.32474q2.30558-11.286,4.632-22.56317c2.82739-4.96457,10.61438-8.21445,16.48181-9.832-1.37439-1.17908-.78027-14.821-.73425-18.12646h2.02868v-5.20508H666.004v-18.1276h1.09619v-.1936H666.738c-5.057-3.20975-12.21582-3.7319-15.743-8.48715-3.292-4.42438-3.26294-13.2677-4.627-19.47357-.684-3.05834-3.4491-11.13236-.7439-13.50165,1.69983-1.47185,9.65589-6.94623,12.77552-6.16574,4.10449,1.01989,14.83,12.1322,18.72033,15.2341q5.92237,4.81942,11.84851,9.637c-.6123.77594-1.23132,1.54868-1.84777,2.32141H684.7066q3.89245,4.14672,7.78077,8.28674H708.419c.08874-12.05648,1.368-27.442-.55884-38.36618-.85327-4.44241-1.72473-8.87228-2.58533-13.309-.74634-2.5752-1.488-5.14151-2.22778-7.71784,1.0769-1.84805,15.57178-12.07428,17.9707-12.9138a8.422,8.422,0,0,1,6.66516.77161q27.50538,28.71951,55.01843,57.46466c4.10645-.07685,10.14-.6658,12.78211.9508-.12207.45423-.24841.90613-.36829,1.35828-2.4707.73923-6.35034.601-9.63049.58443q.74524.76172,1.47522,1.5375,5.00648,5.40771,10.00513,10.80056,6.85308.578,13.71118,1.15466,6.85346,1.54149,13.70691,3.08163c2.34021,1.02765,4.689,2.06421,7.03991,3.08844h7.77613c6.51306,0,12.309.00888,17.2312,1.54663q-.08973,6.16051-.182,12.33466c-1.17981.19928-2.34875.38193-3.52417.58783,24.95166-.16235,52.93518-1.533,72.06543,4.42349,5.24561,1.63989,12.097,2.43588,16.11353,5.59683v.19245q-7.49909,2.79739-15.00879,5.59024c-7.22827,2.22793-14.93591,2.94253-23.149,4.244q-24.82544.10025-49.65307.19265c1.11767.18924,2.2246.38626,3.338.57892v12.34265c-5.22412.29938-10.153,1.15012-16.29761,1.15012-2.963-.05905-5.93494-.12131-8.896-.18265-1.81555.69477-3.871,2.445-5.92858,3.27-7.86841,3.1742-18.17334,3.83771-28.71143,3.86212q-5.55615,5.972-11.11206,11.953c3.48132-.08118,7.85767-.36622,9.99878.962-.12207.45648-.24841.89951-.36829,1.35394-3.27563.9506-8.457.599-12.5935.57892q-27.42033,28.726-54.83863,57.459c-6.32251,4.00235-15.23034-5.08359-19.264-7.90482-1.77283-1.24039-5.07874-2.30136-5.37195-5.02133C709.10229,315.36029,708.39233,293.9773,708.41931,272.36267Z"/><text class="cls-3" transform="translate(197.18701 628.89026)">A</text><text class="cls-4" transform="translate(279.99756 628.89026)">ttila</text><text class="cls-5" transform="translate(527.69092 628.89026)">F</text><text class="cls-4" transform="translate(595.61279 628.89026)">edor</text><text class="cls-6" transform="translate(0 765.10657)">F</text><text class="cls-7" transform="translate(59.19678 765.10657)">r</text><text class="cls-8" transform="translate(97.79639 765.10657)">ont-end D</text><g class="cls-9"><text class="cls-10" transform="translate(587 765.10657)">e</text><text class="cls-11" transform="translate(645.46338 765.10657)">v</text></g><text class="cls-8" transform="translate(701.41797 765.10657)">eloper</text><path id="Téglalap_1" data-name="Téglalap 1" class="cls-12" d="M605.43671,17.7062l52.465,32.617-261.5,420.66-52.463-32.617Z"/></svg>