<?xml version="1.0" encoding="utf-8"?>
<!-- Generator: Adobe Illustrator 24.2.0, SVG Export Plug-In . SVG Version: 6.00 Build 0)  -->
<svg version="1.1" id="RÃ_xA9_teg_x5F_1" xmlns="http://www.w3.org/2000/svg" xmlns:xlink="http://www.w3.org/1999/xlink" x="0px"
	 y="0px" viewBox="0 0 868.5 496.4" style="enable-background:new 0 0 868.5 496.4;" xml:space="preserve">
<style type="text/css">
	.st0{enable-background:new    ;}
	.st1{fill:#8C5700;}
	.st2{fill:#B06D00;}
	.st3{fill:#A86800;}
	.st4{fill:#D78500;}
	.st5{clip-path:url(#SVGID_2_);enable-background:new    ;}
	.st6{clip-path:url(#SVGID_4_);enable-background:new    ;}
	.st7{clip-path:url(#SVGID_6_);enable-background:new    ;}
	.st8{fill:#12456F;}
	.st9{fill:#124773;}
	.st10{clip-path:url(#SVGID_8_);enable-background:new    ;}
	.st11{clip-path:url(#SVGID_10_);enable-background:new    ;}
	.st12{clip-path:url(#SVGID_12_);enable-background:new    ;}
	.st13{clip-path:url(#SVGID_14_);enable-background:new    ;}
	.st14{clip-path:url(#SVGID_16_);enable-background:new    ;}
	.st15{clip-path:url(#SVGID_18_);enable-background:new    ;}
	.st16{fill:#0F385A;}
	.st17{fill:#0E3657;}
	.st18{clip-path:url(#SVGID_20_);enable-background:new    ;}
	.st19{fill:#134874;}
	.st20{clip-path:url(#SVGID_22_);enable-background:new    ;}
	.st21{fill:#134773;}
	.st22{clip-path:url(#SVGID_24_);enable-background:new    ;}
	.st23{clip-path:url(#SVGID_26_);enable-background:new    ;}
	.st24{clip-path:url(#SVGID_28_);enable-background:new    ;}
	.st25{clip-path:url(#SVGID_30_);enable-background:new    ;}
	.st26{clip-path:url(#SVGID_32_);enable-background:new    ;}
	.st27{clip-path:url(#SVGID_34_);enable-background:new    ;}
	.st28{clip-path:url(#SVGID_36_);enable-background:new    ;}
	.st29{clip-path:url(#SVGID_38_);enable-background:new    ;}
	.st30{clip-path:url(#SVGID_40_);enable-background:new    ;}
	.st31{clip-path:url(#SVGID_42_);enable-background:new    ;}
	.st32{clip-path:url(#SVGID_44_);enable-background:new    ;}
	.st33{clip-path:url(#SVGID_46_);enable-background:new    ;}
	.st34{clip-path:url(#SVGID_48_);enable-background:new    ;}
	.st35{clip-path:url(#SVGID_50_);enable-background:new    ;}
	.st36{clip-path:url(#SVGID_52_);enable-background:new    ;}
	.st37{clip-path:url(#SVGID_54_);enable-background:new    ;}
	.st38{clip-path:url(#SVGID_56_);enable-background:new    ;}
	.st39{clip-path:url(#SVGID_58_);enable-background:new    ;}
	.st40{fill:#0F3A5E;}
	.st41{clip-path:url(#SVGID_60_);enable-background:new    ;}
	.st42{clip-path:url(#SVGID_62_);enable-background:new    ;}
	.st43{fill:#103C61;}
	.st44{clip-path:url(#SVGID_64_);enable-background:new    ;}
	.st45{clip-path:url(#SVGID_66_);enable-background:new    ;}
	.st46{clip-path:url(#SVGID_68_);enable-background:new    ;}
	.st47{clip-path:url(#SVGID_70_);enable-background:new    ;}
	.st48{clip-path:url(#SVGID_72_);enable-background:new    ;}
	.st49{clip-path:url(#SVGID_74_);enable-background:new    ;}
	.st50{clip-path:url(#SVGID_76_);enable-background:new    ;}
	.st51{clip-path:url(#SVGID_78_);enable-background:new    ;}
	.st52{clip-path:url(#SVGID_80_);enable-background:new    ;}
	.st53{clip-path:url(#SVGID_82_);enable-background:new    ;}
	.st54{clip-path:url(#SVGID_84_);enable-background:new    ;}
	.st55{clip-path:url(#SVGID_86_);enable-background:new    ;}
	.st56{clip-path:url(#SVGID_88_);enable-background:new    ;}
	.st57{clip-path:url(#SVGID_90_);enable-background:new    ;}
	.st58{clip-path:url(#SVGID_92_);enable-background:new    ;}
	.st59{fill:#185B92;}
	.st60{clip-path:url(#SVGID_94_);enable-background:new    ;}
	.st61{clip-path:url(#SVGID_96_);enable-background:new    ;}
	.st62{clip-path:url(#SVGID_98_);enable-background:new    ;}
	.st63{clip-path:url(#SVGID_100_);enable-background:new    ;}
	.st64{clip-path:url(#SVGID_102_);enable-background:new    ;}
	.st65{clip-path:url(#SVGID_104_);enable-background:new    ;}
	.st66{clip-path:url(#SVGID_106_);enable-background:new    ;}
	.st67{clip-path:url(#SVGID_108_);enable-background:new    ;}
	.st68{clip-path:url(#SVGID_110_);enable-background:new    ;}
	.st69{clip-path:url(#SVGID_112_);enable-background:new    ;}
	.st70{clip-path:url(#SVGID_114_);enable-background:new    ;}
	.st71{clip-path:url(#SVGID_116_);enable-background:new    ;}
	.st72{clip-path:url(#SVGID_118_);enable-background:new    ;}
	.st73{clip-path:url(#SVGID_120_);enable-background:new    ;}
	.st74{clip-path:url(#SVGID_122_);enable-background:new    ;}
	.st75{clip-path:url(#SVGID_124_);enable-background:new    ;}
	.st76{clip-path:url(#SVGID_126_);enable-background:new    ;}
	.st77{clip-path:url(#SVGID_128_);enable-background:new    ;}
	.st78{clip-path:url(#SVGID_130_);enable-background:new    ;}
	.st79{fill:#0F3C60;}
	.st80{clip-path:url(#SVGID_132_);enable-background:new    ;}
	.st81{clip-path:url(#SVGID_134_);enable-background:new    ;}
	.st82{clip-path:url(#SVGID_136_);enable-background:new    ;}
	.st83{clip-path:url(#SVGID_138_);enable-background:new    ;}
	.st84{clip-path:url(#SVGID_140_);enable-background:new    ;}
	.st85{clip-path:url(#SVGID_142_);enable-background:new    ;}
	.st86{clip-path:url(#SVGID_144_);enable-background:new    ;}
	.st87{clip-path:url(#SVGID_146_);enable-background:new    ;}
	.st88{clip-path:url(#SVGID_148_);enable-background:new    ;}
	.st89{clip-path:url(#SVGID_150_);enable-background:new    ;}
	.st90{clip-path:url(#SVGID_152_);enable-background:new    ;}
	.st91{clip-path:url(#SVGID_154_);enable-background:new    ;}
	.st92{clip-path:url(#SVGID_156_);enable-background:new    ;}
	.st93{clip-path:url(#SVGID_158_);enable-background:new    ;}
	.st94{clip-path:url(#SVGID_160_);enable-background:new    ;}
	.st95{clip-path:url(#SVGID_162_);enable-background:new    ;}
	.st96{clip-path:url(#SVGID_164_);enable-background:new    ;}
	.st97{fill:#144B79;}
	.st98{clip-path:url(#SVGID_166_);enable-background:new    ;}
	.st99{clip-path:url(#SVGID_168_);enable-background:new    ;}
	.st100{clip-path:url(#SVGID_170_);enable-background:new    ;}
	.st101{clip-path:url(#SVGID_172_);enable-background:new    ;}
	.st102{clip-path:url(#SVGID_174_);enable-background:new    ;}
	.st103{clip-path:url(#SVGID_176_);enable-background:new    ;}
	.st104{fill:#134976;}
	.st105{clip-path:url(#SVGID_178_);enable-background:new    ;}
	.st106{fill:#134A78;}
	.st107{clip-path:url(#SVGID_180_);enable-background:new    ;}
	.st108{clip-path:url(#SVGID_182_);enable-background:new    ;}
	.st109{clip-path:url(#SVGID_184_);enable-background:new    ;}
	.st110{clip-path:url(#SVGID_186_);enable-background:new    ;}
	.st111{clip-path:url(#SVGID_188_);enable-background:new    ;}
	.st112{clip-path:url(#SVGID_190_);enable-background:new    ;}
	.st113{clip-path:url(#SVGID_192_);enable-background:new    ;}
	.st114{clip-path:url(#SVGID_194_);enable-background:new    ;}
	.st115{clip-path:url(#SVGID_196_);enable-background:new    ;}
	.st116{clip-path:url(#SVGID_198_);enable-background:new    ;}
	.st117{clip-path:url(#SVGID_200_);enable-background:new    ;}
	.st118{clip-path:url(#SVGID_202_);enable-background:new    ;}
	.st119{fill:#114067;}
</style>
<g>
	<g>
		<g class="st0">
			<g>
				<polygon points="132.3,128.2 141.7,135.1 22.4,252.2 13,245.3 				"/>
			</g>
			<g>
				<polygon points="250,12.4 259.5,19.4 141.7,135.1 132.3,128.2 				"/>
			</g>
			<g>
				<polygon class="st1" points="248.8,85.9 258.2,92.9 96,252.2 86.6,245.3 				"/>
			</g>
			<g>
				<polygon class="st2" points="250,12.4 259.5,19.4 258.2,92.9 248.8,85.9 				"/>
			</g>
			<g>
				<polygon points="251.7,87.1 261.2,94.1 100.2,252.2 90.7,245.3 				"/>
			</g>
			<g>
				<polygon points="253.1,5.3 262.5,12.3 261.2,94.1 251.7,87.1 				"/>
			</g>
			<g>
				<polygon class="st3" points="86.6,245.3 96,252.2 173.4,332.6 164,325.6 				"/>
			</g>
			<g>
				<polygon points="90.7,245.3 100.2,252.2 175.6,330.5 166.1,323.5 				"/>
			</g>
			<g>
				<polygon class="st3" points="164,325.6 173.4,332.6 249.5,411.5 240.1,404.5 				"/>
			</g>
			<g>
				<polygon points="166.1,323.5 175.6,330.5 252.5,410.3 243,403.3 				"/>
			</g>
			<g>
				<polygon points="13,245.3 22.4,252.2 247.5,485.6 238.1,478.7 				"/>
			</g>
			<g>
				<polygon class="st2" points="240.1,404.5 249.5,411.5 247.5,485.6 238.1,478.7 				"/>
			</g>
			<g>
				<path d="M90.7,245.3l75.4,78.3l76.9,79.8l-2.2,82.5L8.8,245.3l121.4-119.2L253.1,5.3l-1.4,81.8L90.7,245.3z M238.1,478.7l2-74.1
					L164,325.6l-77.4-80.4L248.8,85.9l1.2-73.5L132.3,128.2L13,245.3L238.1,478.7"/>
			</g>
			<g>
				<polygon class="st4" points="250,12.4 248.8,85.9 86.6,245.3 164,325.6 240.1,404.5 238.1,478.7 13,245.3 132.3,128.2 				"/>
			</g>
			<g>
				<polygon points="243,403.3 252.5,410.3 250.3,492.8 240.8,485.8 				"/>
			</g>
		</g>
	</g>
</g>
<g>
	<g>
		<g class="st0">
			<g>
				<polygon points="622.7,12 632.1,19 630.1,93.2 620.7,86.3 				"/>
			</g>
			<g>
				<polygon class="st3" points="622.7,12 632.1,19 743.9,135 734.5,128 				"/>
			</g>
			<g>
				<polygon points="619.9,4.9 629.4,11.8 746.1,132.9 736.6,125.9 				"/>
			</g>
			<g>
				<polygon points="620.7,86.3 630.1,93.2 783.8,252.6 774.4,245.6 				"/>
			</g>
			<g>
				<polygon points="774.4,245.6 783.8,252.6 621.6,411.9 612.2,405 				"/>
			</g>
			<g>
				<polygon points="612.2,405 621.6,411.9 619.6,486.1 610.2,479.1 				"/>
			</g>
			<g>
				<polygon class="st1" points="728.2,362.9 737.6,369.9 619.6,486.1 610.2,479.1 				"/>
			</g>
			<g>
				<polygon points="730.2,365 739.6,372 616.5,493.2 607,486.3 				"/>
			</g>
			<g>
				<polygon class="st3" points="734.5,128 743.9,135 857.2,252.5 847.8,245.5 				"/>
			</g>
			<g>
				<polygon class="st4" points="622.7,12 734.5,128 847.8,245.5 728.2,362.9 610.2,479.1 612.2,405 774.4,245.6 620.7,86.3 				"/>
			</g>
			<g>
				<polygon class="st1" points="847.8,245.5 857.2,252.5 737.6,369.9 728.2,362.9 				"/>
			</g>
			<g>
				<path d="M736.6,125.9l115.3,119.6L730.2,365L607,486.3l2.2-82.5l161-158.1L617.7,87.5l2.2-82.6L736.6,125.9z M728.2,362.9
					l119.6-117.4L734.5,128L622.7,12l-2,74.2l153.7,159.4L612.2,405l-2,74.1L728.2,362.9"/>
			</g>
			<g>
				<polygon points="851.9,245.5 861.4,252.5 739.6,372 730.2,365 				"/>
			</g>
			<g>
				<polygon points="736.6,125.9 746.1,132.9 861.4,252.5 851.9,245.5 				"/>
			</g>
		</g>
	</g>
</g>
<g>
	<g>
		<g class="st0">
			<g class="st0">
				<defs>
					<path id="SVGID_1_" class="st0" d="M573.4,179.7l9.4,7c-2.7,0-9.4,4.1-11.4,5.8c-1.6,1.4-0.2,7.5,0.4,10.2
						c0.2,0.7,0.3,1.3,0.4,1.8l-9.4-7c-0.1-0.5-0.2-1.1-0.4-1.8c-0.6-2.6-2-8.8-0.4-10.2C564,183.7,570.7,179.6,573.4,179.7z"/>
				</defs>
				<clipPath id="SVGID_2_">
					<use xlink:href="#SVGID_1_"  style="overflow:visible;"/>
				</clipPath>
				<g class="st5">
					<path d="M573.4,179.7l9.4,7c-2.7,0-9.4,4.1-11.4,5.8c0,0,0,0,0,0l-9.4-7c0,0,0,0,0,0C564,183.7,570.7,179.6,573.4,179.7"/>
					<path d="M562,185.5l9.4,7c0,0-0.1,0.1-0.1,0.1l-9.4-7C561.9,185.6,562,185.5,562,185.5"/>
					<path d="M561.9,185.6l9.4,7c0,0-0.1,0.1-0.1,0.2l-9.4-7C561.8,185.7,561.9,185.7,561.9,185.6"/>
					<path d="M561.8,185.8l9.4,7c0,0.1-0.1,0.1-0.1,0.2l-9.4-7C561.7,185.9,561.7,185.8,561.8,185.8"/>
					<path d="M561.7,186l9.4,7c0,0.1-0.1,0.2-0.1,0.3l-9.4-7C561.6,186.1,561.6,186,561.7,186"/>
					<path d="M561.6,186.2l9.4,7c0,0.1-0.1,0.2-0.1,0.4l-9.4-7C561.5,186.5,561.5,186.3,561.6,186.2"/>
					<path d="M561.5,186.6l9.4,7c0,0.2-0.1,0.4-0.1,0.6l-9.4-7C561.4,187,561.4,186.8,561.5,186.6"/>
					<path d="M561.3,187.2l9.4,7c-0.1,0.5-0.1,1.1,0,1.7l-9.4-7C561.3,188.3,561.3,187.7,561.3,187.2"/>
					<path d="M561.3,188.9l9.4,7c0.1,2.3,0.8,5.2,1.1,6.7c0.2,0.7,0.3,1.3,0.4,1.8l-9.4-7c-0.1-0.5-0.2-1.1-0.4-1.8
						C562.1,194,561.4,191.2,561.3,188.9"/>
				</g>
			</g>
			<g class="st0">
				<defs>
					<path id="SVGID_3_" class="st0" d="M576.2,181.2l9.4,7c-1.1-0.8-2.1-1.4-2.8-1.6l-9.4-7C574.1,179.8,575.1,180.4,576.2,181.2z"
						/>
				</defs>
				<clipPath id="SVGID_4_">
					<use xlink:href="#SVGID_3_"  style="overflow:visible;"/>
				</clipPath>
				<g class="st6">
					<path d="M576.2,181.2l9.4,7c-1.1-0.8-2.1-1.4-2.8-1.6l-9.4-7C574.1,179.8,575.1,180.4,576.2,181.2"/>
				</g>
			</g>
			<g class="st0">
				<defs>
					<path id="SVGID_5_" class="st0" d="M585.9,188.5c3,2.2,6.7,5.8,9.5,8.4c-3.1-2.3-6.3-4.6-9.4-7c-2.8-2.7-6.5-6.2-9.5-8.4
						C579.3,183.6,583.1,186.4,585.9,188.5z"/>
				</defs>
				<clipPath id="SVGID_6_">
					<use xlink:href="#SVGID_5_"  style="overflow:visible;"/>
				</clipPath>
				<g class="st7">
					<path class="st8" d="M576.5,181.5l9.4,7c1.4,1,2.9,2.4,4.5,3.7l-9.4-7C579.4,183.9,577.9,182.5,576.5,181.5"/>
					<path class="st9" d="M581,185.3l9.4,7c1.8,1.6,3.5,3.3,5,4.7c1.4,1.4,2.7,2.6,3.7,3.5l-9.4-7c-1-0.9-2.3-2.2-3.7-3.5
						C584.5,188.5,582.7,186.9,581,185.3"/>
				</g>
			</g>
			<g class="st0">
				<defs>
					<path id="SVGID_7_" class="st0" d="M578.1,225.2l-9.4-7c-0.8-0.6-1.5-1.3-2-2.1c-2-2.7-2.5-7.8-3-12.6
						c-0.2-2.2-0.4-4.2-0.8-6.2l9.4,7c0.3,1.9,0.6,4,0.8,6.2c0.5,4.8,1,9.8,3,12.6C576.6,223.9,577.3,224.6,578.1,225.2z"/>
				</defs>
				<clipPath id="SVGID_8_">
					<use xlink:href="#SVGID_7_"  style="overflow:visible;"/>
				</clipPath>
				<g class="st10">
					<path d="M562.9,197.4l9.4,7c0.3,1.9,0.6,4,0.8,6.2c0.5,4.8,1,9.8,3,12.6c0.1,0.1,0.2,0.3,0.3,0.4l-9.4-7
						c-0.1-0.1-0.2-0.3-0.3-0.4c-2-2.7-2.5-7.8-3-12.6C563.4,201.4,563.2,199.3,562.9,197.4"/>
					<path d="M566.9,216.5l9.4,7c0.3,0.4,0.6,0.7,1,1l-9.4-7C567.5,217.3,567.2,216.9,566.9,216.5"/>
					<path d="M567.9,217.6l9.4,7c0.2,0.2,0.5,0.4,0.8,0.6l-9.4-7C568.4,218,568.1,217.8,567.9,217.6"/>
				</g>
			</g>
			<g class="st0">
				<defs>
					<path id="SVGID_9_" class="st0" d="M595.4,196.9c2,1.9,3.7,3.5,4.8,4.5l-9.4-7c0,0,0,0,0,0c3.1,2.3,6.3,4.6,9.4,6.9
						c-3.1-2.3-6.3-4.6-9.4-6.9c-1.1-0.9-2.9-2.6-4.8-4.5c0,0,0,0,0,0C589.1,192.3,592.3,194.6,595.4,196.9
						C595.4,196.9,595.4,196.9,595.4,196.9z"/>
				</defs>
				<clipPath id="SVGID_10_">
					<use xlink:href="#SVGID_9_"  style="overflow:visible;"/>
				</clipPath>
				<g class="st11">
					<path class="st9" d="M581,185.3l9.4,7c1.8,1.6,3.5,3.3,5,4.7c1.4,1.4,2.7,2.6,3.7,3.5l-9.4-7c-1-0.9-2.3-2.2-3.7-3.5
						C584.5,188.5,582.7,186.9,581,185.3"/>
					<path class="st8" d="M589.7,193.5l9.4,7c0.4,0.4,0.8,0.7,1.1,1l-9.4-7C590.5,194.1,590.1,193.8,589.7,193.5"/>
				</g>
			</g>
			<g class="st0">
				<defs>
					<path id="SVGID_11_" class="st0" d="M602.4,203.2c-3.1-2.3-6.3-4.6-9.4-7c-0.7-0.6-1.5-1.2-2.2-1.9l9.4,7
						C601,202,601.7,202.6,602.4,203.2z"/>
				</defs>
				<clipPath id="SVGID_12_">
					<use xlink:href="#SVGID_11_"  style="overflow:visible;"/>
				</clipPath>
				<g class="st12">
					<path class="st8" d="M590.8,194.4l9.4,7c1.9,1.6,3.8,3.2,5.7,4.8c1.5,1.3,3.1,2.5,4.6,3.8l-9.4-7c-1.5-1.3-3-2.5-4.6-3.8
						C594.6,197.6,592.7,196,590.8,194.4"/>
				</g>
			</g>
			<g class="st0">
				<defs>
					<path id="SVGID_13_" class="st0" d="M619.8,154.8l9.4,7c0.3,1,0.5,2,0.8,3c0.3,1.3,0.7,2.5,1,3.9l-9.4-7
						c-0.3-1.3-0.7-2.6-1-3.9C620.4,156.8,620.1,155.8,619.8,154.8z"/>
				</defs>
				<clipPath id="SVGID_14_">
					<use xlink:href="#SVGID_13_"  style="overflow:visible;"/>
				</clipPath>
				<g class="st13">
					<path d="M619.8,154.8l9.4,7c0.3,1,0.5,2,0.8,3c0.3,1.3,0.7,2.5,1,3.9l-9.4-7c-0.3-1.3-0.7-2.6-1-3.9
						C620.4,156.8,620.1,155.8,619.8,154.8"/>
				</g>
			</g>
			<g class="st0">
				<defs>
					<path id="SVGID_15_" class="st0" d="M576.3,227.6l-9.4-7c2.1,1.5,4.6,2.5,7,3.4c1.5,0.6,3.1,1.2,4.5,1.9l9.4,7
						c-1.4-0.7-3-1.3-4.5-1.9C580.9,230,578.4,229.1,576.3,227.6z"/>
				</defs>
				<clipPath id="SVGID_16_">
					<use xlink:href="#SVGID_15_"  style="overflow:visible;"/>
				</clipPath>
				<g class="st14">
					<path d="M578.4,225.9l9.4,7c-1.4-0.7-3-1.3-4.5-1.9c-2.4-0.9-4.9-1.9-7-3.4l-9.4-7c2.1,1.5,4.6,2.5,7,3.4
						C575.4,224.6,577,225.2,578.4,225.9"/>
				</g>
			</g>
			<g class="st0">
				<defs>
					<path id="SVGID_17_" class="st0" d="M584.4,228.2c-2.3-0.9-4.6-1.7-6.3-3l-9.4-7c1.8,1.3,4,2.1,6.3,3c0,0,0,0,0,0
						C578.1,223.5,581.3,225.9,584.4,228.2c-3.2-2.3-6.3-4.6-9.4-7c2.1,0.8,4.2,1.6,6.1,2.7c3.1,2.3,6.3,4.6,9.4,7
						C588.6,229.8,586.5,229,584.4,228.2z"/>
				</defs>
				<clipPath id="SVGID_18_">
					<use xlink:href="#SVGID_17_"  style="overflow:visible;"/>
				</clipPath>
				<g class="st15">
					<path class="st16" d="M581.1,224l9.4,7c-1.9-1.2-4-2-6.1-2.7c-2.3-0.9-4.6-1.7-6.3-3l-9.4-7c1.8,1.3,4,2.1,6.3,3
						C577,222,579.2,222.8,581.1,224"/>
				</g>
			</g>
			<g>
				<polygon class="st17" points="582.5,224 592,230.9 590.5,230.9 581.1,224 				"/>
			</g>
			<g class="st0">
				<defs>
					<path id="SVGID_19_" class="st0" d="M641.9,143.7l9.4,7c-1-0.6-2.2-0.9-3.3-0.9c-0.6,0-1.3,0.1-1.9,0.3
						c-2,0.7-14.2,9.3-16.8,11.7l-9.4-7c2.6-2.5,14.8-11.1,16.8-11.7c0.6-0.2,1.3-0.3,1.9-0.3C639.7,142.8,640.8,143.1,641.9,143.7z
						"/>
				</defs>
				<clipPath id="SVGID_20_">
					<use xlink:href="#SVGID_19_"  style="overflow:visible;"/>
				</clipPath>
				<g class="st18">
					<path d="M641.9,143.7l9.4,7c-1-0.6-2.2-0.9-3.3-0.9c-0.6,0-1.3,0.1-1.9,0.3c-1.9,0.6-13.1,8.5-16.4,11.3l-9.4-7
						c3.3-2.9,14.5-10.7,16.4-11.3c0.6-0.2,1.3-0.3,1.9-0.3C639.7,142.8,640.8,143.1,641.9,143.7"/>
					<path d="M620.3,154.4l9.4,7c-0.2,0.1-0.3,0.3-0.4,0.4l-9.4-7C620,154.7,620.1,154.6,620.3,154.4"/>
				</g>
			</g>
			<g>
				<polygon class="st19" points="595.6,203.6 605,210.5 607.3,213 597.8,206.1 				"/>
			</g>
			<g>
				<polygon points="582.4,227.1 591.9,234.1 590.8,234.1 581.3,227.1 				"/>
			</g>
			<g>
				<polygon points="582.5,224 592,230.9 591.9,234.1 582.4,227.1 				"/>
			</g>
			<g>
				<polygon class="st17" points="601,203 610.5,210 605,210.5 595.6,203.6 				"/>
			</g>
			<g class="st0">
				<defs>
					<path id="SVGID_21_" class="st0" d="M605.9,206.1c1.5,1.3,3.1,2.5,4.6,3.8l-9.4-7c-1.5-1.3-3-2.5-4.6-3.8
						c-1.2-1-2.3-1.9-3.5-2.9c3.1,2.3,6.3,4.6,9.4,7C603.6,204.2,604.8,205.2,605.9,206.1z"/>
				</defs>
				<clipPath id="SVGID_22_">
					<use xlink:href="#SVGID_21_"  style="overflow:visible;"/>
				</clipPath>
				<g class="st20">
					<path class="st8" d="M590.8,194.4l9.4,7c1.9,1.6,3.8,3.2,5.7,4.8c1.5,1.3,3.1,2.5,4.6,3.8l-9.4-7c-1.5-1.3-3-2.5-4.6-3.8
						C594.6,197.6,592.7,196,590.8,194.4"/>
				</g>
			</g>
			<g>
				<polygon class="st21" points="641.9,143.7 651.3,150.6 653.3,152.7 643.8,145.8 				"/>
			</g>
			<g class="st0">
				<defs>
					<path id="SVGID_23_" class="st0" d="M608.1,214c-3.1-2.3-6.3-4.6-9.4-7c-0.3-0.3-0.6-0.7-0.9-1l9.4,7
						C607.6,213.3,607.8,213.7,608.1,214z"/>
				</defs>
				<clipPath id="SVGID_24_">
					<use xlink:href="#SVGID_23_"  style="overflow:visible;"/>
				</clipPath>
				<g class="st22">
					<path class="st9" d="M597.8,206.1l9.4,7c1.2,1.4,2.5,2.8,3.7,4.1c1.2,1.4,2.5,2.7,3.7,4.1l-9.4-7c-1.2-1.4-2.5-2.7-3.7-4.1
						C600.3,208.8,599.1,207.5,597.8,206.1"/>
				</g>
			</g>
			<g>
				<polygon points="643.6,141.2 653,148.1 655.4,150.7 646,143.7 				"/>
			</g>
			<g class="st0">
				<defs>
					<path id="SVGID_25_" class="st0" d="M578.1,178.9l9.4,7c2.7,2,6.1,5.2,9.9,8.9c1.9,1.8,3.6,3.4,4.7,4.3
						c1.9,1.6,3.8,3.2,5.7,4.8c1.9,1.6,3.8,3.2,5.7,4.8l-9.4-7c-1.9-1.6-3.8-3.2-5.7-4.8c-1.9-1.6-3.8-3.2-5.7-4.8
						c-1.1-0.9-2.7-2.5-4.7-4.3C584.2,184.1,580.8,180.9,578.1,178.9z"/>
				</defs>
				<clipPath id="SVGID_26_">
					<use xlink:href="#SVGID_25_"  style="overflow:visible;"/>
				</clipPath>
				<g class="st23">
					<path d="M578.1,178.9l9.4,7c1.3,1,2.8,2.2,4.4,3.7l-9.4-7C580.9,181.1,579.4,179.9,578.1,178.9"/>
					<path d="M582.5,182.6l9.4,7c1.7,1.5,3.5,3.3,5.5,5.2c1.4,1.4,2.7,2.6,3.7,3.5l-9.4-7c-1-0.9-2.3-2.1-3.7-3.5
						C586.1,185.9,584.2,184.1,582.5,182.6"/>
					<path d="M591.7,191.3l9.4,7c0.4,0.3,0.7,0.6,1,0.8c1.9,1.6,3.8,3.2,5.7,4.8c1.9,1.6,3.8,3.2,5.7,4.8l-9.4-7
						c-1.9-1.6-3.8-3.2-5.7-4.8c-1.9-1.6-3.8-3.2-5.7-4.8C592.4,191.9,592.1,191.6,591.7,191.3"/>
				</g>
			</g>
			<g class="st0">
				<defs>
					<path id="SVGID_27_" class="st0" d="M621.6,161.7l9.4,7c0.4,2.3,0.8,4.5,1.1,6.7c0.4,2.2,0.7,4.4,1.1,6.6l-9.4-7
						c-0.4-2.2-0.7-4.4-1.1-6.6C622.4,166.2,622,164,621.6,161.7z"/>
				</defs>
				<clipPath id="SVGID_28_">
					<use xlink:href="#SVGID_27_"  style="overflow:visible;"/>
				</clipPath>
				<g class="st24">
					<path d="M621.6,161.7l9.4,7c0.4,2.3,0.8,4.5,1.1,6.7c0.4,2.2,0.7,4.4,1.1,6.6l-9.4-7c-0.4-2.2-0.7-4.4-1.1-6.6
						C622.4,166.2,622,164,621.6,161.7"/>
				</g>
			</g>
			<g class="st0">
				<defs>
					<path id="SVGID_29_" class="st0" d="M603.3,204.8l9.4,7c-0.3,0.4-0.6,0.7-0.9,1.1l-9.4-7C602.7,205.6,603,205.2,603.3,204.8z"
						/>
				</defs>
				<clipPath id="SVGID_30_">
					<use xlink:href="#SVGID_29_"  style="overflow:visible;"/>
				</clipPath>
				<g class="st25">
					<path d="M603.3,204.8l9.4,7c0,0,0,0,0,0L603.3,204.8C603.3,204.9,603.3,204.9,603.3,204.8"/>
					<path d="M603.3,204.9l9.4,7c-0.3,0.3-0.6,0.7-0.9,1.1l-9.4-7C602.7,205.6,603,205.2,603.3,204.9"/>
				</g>
			</g>
			<g class="st0">
				<defs>
					<path id="SVGID_31_" class="st0" d="M604.3,203.7l9.4,7c-0.3,0.4-0.6,0.8-0.9,1.2l-9.4-7C603.6,204.5,603.9,204.1,604.3,203.7z
						"/>
				</defs>
				<clipPath id="SVGID_32_">
					<use xlink:href="#SVGID_31_"  style="overflow:visible;"/>
				</clipPath>
				<g class="st26">
					<path d="M604.3,203.7l9.4,7c-0.3,0.4-0.6,0.8-0.9,1.2l-9.4-7C603.6,204.5,603.9,204.1,604.3,203.7"/>
				</g>
			</g>
			<g>
				<polygon points="605.1,202.5 614.6,209.5 613.7,210.6 604.3,203.7 				"/>
			</g>
			<g>
				<polygon points="604.1,201.6 613.5,208.6 614.6,209.5 605.1,202.5 				"/>
			</g>
			<g>
				<polygon points="581.3,227.1 590.8,234.1 590.4,249 580.9,242.1 				"/>
			</g>
			<g>
				<polygon points="579.9,245.1 589.3,252 587.4,252 577.9,245.1 				"/>
			</g>
			<g>
				<polygon class="st17" points="582.9,242.1 592.3,249 590.4,249 580.9,242.1 				"/>
			</g>
			<g class="st0">
				<defs>
					<path id="SVGID_33_" class="st0" d="M602.4,205.9l9.4,7c0.2,1,0.8,1.6,1.3,2.2c1.1,1.2,2.2,2.4,3.3,3.6l-9.4-7
						c-1.1-1.2-2.2-2.4-3.3-3.6C603.2,207.5,602.6,207,602.4,205.9z"/>
				</defs>
				<clipPath id="SVGID_34_">
					<use xlink:href="#SVGID_33_"  style="overflow:visible;"/>
				</clipPath>
				<g class="st27">
					<path d="M602.4,205.9l9.4,7c0.1,0.7,0.4,1.2,0.8,1.6l-9.4-7C602.9,207.1,602.6,206.6,602.4,205.9"/>
					<path d="M603.2,207.5l9.4,7c0.2,0.2,0.3,0.4,0.5,0.6c1.1,1.2,2.2,2.4,3.3,3.6l-9.4-7c-1.1-1.2-2.2-2.4-3.3-3.6
						C603.5,207.9,603.4,207.7,603.2,207.5"/>
				</g>
			</g>
			<g class="st0">
				<defs>
					<path id="SVGID_35_" class="st0" d="M611,217.1c1.2,1.4,2.5,2.7,3.7,4.1l-9.4-7c-1.2-1.4-2.5-2.7-3.7-4.1
						c-0.9-1-1.9-2.1-2.8-3.1c3.1,2.3,6.3,4.6,9.4,7C609.1,215.1,610,216.1,611,217.1z"/>
				</defs>
				<clipPath id="SVGID_36_">
					<use xlink:href="#SVGID_35_"  style="overflow:visible;"/>
				</clipPath>
				<g class="st28">
					<path class="st9" d="M597.8,206.1l9.4,7c1.2,1.4,2.5,2.8,3.7,4.1c1.2,1.4,2.5,2.7,3.7,4.1l-9.4-7c-1.2-1.4-2.5-2.7-3.7-4.1
						C600.3,208.8,599.1,207.5,597.8,206.1"/>
				</g>
			</g>
			<g>
				<polygon points="582.9,242.1 592.3,249 592.1,257.2 582.7,250.2 				"/>
			</g>
			<g>
				<polygon points="582.7,250.2 592.1,257.2 590.1,257.2 580.7,250.2 				"/>
			</g>
			<g class="st0">
				<defs>
					<path id="SVGID_37_" class="st0" d="M580.7,250.2l9.4,7c-0.7,11.1-0.4,14.5-0.1,15.4l-9.4-7C580.3,264.7,580,261.3,580.7,250.2
						z"/>
				</defs>
				<clipPath id="SVGID_38_">
					<use xlink:href="#SVGID_37_"  style="overflow:visible;"/>
				</clipPath>
				<g class="st29">
					<path d="M580.7,250.2l9.4,7c-0.4,7.2-0.5,11.2-0.4,13.3l-9.4-7C580.2,261.4,580.2,257.4,580.7,250.2"/>
					<path d="M580.3,263.5l9.4,7c0.1,1.2,0.2,1.8,0.3,2.1l-9.4-7C580.5,265.3,580.4,264.7,580.3,263.5"/>
				</g>
			</g>
			<g class="st0">
				<defs>
					<path id="SVGID_39_" class="st0" d="M579.8,268.1l9.4,7c-3.6,1-12.3,3.8-15.4,8.8l-9.4-7C567.5,271.9,576.2,269.1,579.8,268.1z
						"/>
				</defs>
				<clipPath id="SVGID_40_">
					<use xlink:href="#SVGID_39_"  style="overflow:visible;"/>
				</clipPath>
				<g class="st30">
					<path d="M579.8,268.1l9.4,7c-3,0.8-9.3,2.8-13.2,6.3l-9.4-7C570.6,270.9,576.9,268.9,579.8,268.1"/>
					<path d="M566.6,274.3l9.4,7c-0.5,0.4-1,0.9-1.4,1.4l-9.4-7C565.7,275.2,566.1,274.8,566.6,274.3"/>
					<path d="M565.3,275.7l9.4,7c-0.3,0.3-0.5,0.6-0.7,1l-9.4-7C564.8,276.3,565,276,565.3,275.7"/>
					<path d="M564.5,276.7l9.4,7c0,0.1-0.1,0.1-0.1,0.2l-9.4-7C564.5,276.8,564.5,276.7,564.5,276.7"/>
				</g>
			</g>
			<g>
				<polygon points="582.5,267.3 592,274.3 589.3,275 579.8,268.1 				"/>
			</g>
			<g>
				<polygon points="580.6,265.6 590,272.6 592,274.3 582.5,267.3 				"/>
			</g>
			<g class="st0">
				<defs>
					<path id="SVGID_41_" class="st0" d="M564.4,276.9l9.4,7c-0.9,4-1.8,8-2.8,12c-0.8,3.4-1.6,6.7-2.3,10.1l-9.4-7
						c0.8-3.4,1.5-6.7,2.3-10.1C562.6,284.9,563.5,280.9,564.4,276.9z"/>
				</defs>
				<clipPath id="SVGID_42_">
					<use xlink:href="#SVGID_41_"  style="overflow:visible;"/>
				</clipPath>
				<g class="st31">
					<path d="M564.4,276.9l9.4,7c-0.9,4-1.8,8-2.8,12c-0.8,3.4-1.6,6.7-2.3,10.1l-9.4-7c0.8-3.4,1.5-6.7,2.3-10.1
						C562.6,284.9,563.5,280.9,564.4,276.9"/>
				</g>
			</g>
			<g class="st0">
				<defs>
					<path id="SVGID_43_" class="st0" d="M623.8,174.9l9.4,7c1.3,8.3,0.7,18.6,0.1,28.6c-0.2,3.4-0.4,6.7-0.5,9.7l-9.4-7
						c0.1-3.1,0.3-6.3,0.5-9.7C624.5,193.5,625.1,183.2,623.8,174.9z"/>
				</defs>
				<clipPath id="SVGID_44_">
					<use xlink:href="#SVGID_43_"  style="overflow:visible;"/>
				</clipPath>
				<g class="st32">
					<path d="M623.8,174.9l9.4,7c0.3,2,0.5,4.1,0.6,6.2l-9.4-7C624.3,179,624.1,176.9,623.8,174.9"/>
					<path d="M624.5,181.2l9.4,7c0.4,6.9-0.1,14.8-0.5,22.4c-0.2,3.4-0.4,6.7-0.5,9.7l-9.4-7c0.1-3.1,0.3-6.3,0.5-9.7
						C624.4,195.9,624.8,188.1,624.5,181.2"/>
				</g>
			</g>
			<g>
				<polygon points="623.4,213.3 632.9,220.2 632.8,221.7 623.4,214.8 				"/>
			</g>
			<g>
				<polygon points="623.4,214.8 632.8,221.7 615.1,221.7 605.7,214.8 				"/>
			</g>
			<g class="st0">
				<defs>
					<path id="SVGID_45_" class="st0" d="M559.4,299l9.4,7c-0.5,2-1.3,4.8-0.8,6.5l-9.4-7C558,303.8,558.8,301,559.4,299z"/>
				</defs>
				<clipPath id="SVGID_46_">
					<use xlink:href="#SVGID_45_"  style="overflow:visible;"/>
				</clipPath>
				<g class="st33">
					<path d="M559.4,299l9.4,7c-0.2,0.6-0.3,1.2-0.5,1.8l-9.4-7C559,300.2,559.2,299.6,559.4,299"/>
					<path d="M558.9,300.8l9.4,7c-0.2,0.8-0.4,1.6-0.4,2.3l-9.4-7C558.5,302.4,558.7,301.6,558.9,300.8"/>
					<path d="M558.4,303.2l9.4,7c-0.1,0.5-0.1,0.9-0.1,1.3l-9.4-7C558.4,304.1,558.4,303.6,558.4,303.2"/>
					<path d="M558.4,304.5l9.4,7c0,0.4,0.1,0.7,0.2,1l-9.4-7C558.5,305.2,558.4,304.9,558.4,304.5"/>
				</g>
			</g>
			<g class="st0">
				<defs>
					<path id="SVGID_47_" class="st0" d="M570.4,314.6l-9.4-7c-1.2-0.9-2.2-1.7-2.5-2.1l9.4,7C568.2,312.9,569.2,313.7,570.4,314.6z
						"/>
				</defs>
				<clipPath id="SVGID_48_">
					<use xlink:href="#SVGID_47_"  style="overflow:visible;"/>
				</clipPath>
				<g class="st34">
					<path d="M558.5,305.5l9.4,7c0,0,0.1,0.1,0.1,0.2l-9.4-7C558.6,305.6,558.6,305.6,558.5,305.5"/>
					<path d="M558.7,305.7l9.4,7c0.1,0.2,0.3,0.3,0.5,0.6l-9.4-7C559,306,558.8,305.8,558.7,305.7"/>
					<path d="M559.2,306.2l9.4,7c0.4,0.4,1.1,0.9,1.8,1.4l-9.4-7C560.3,307.1,559.7,306.6,559.2,306.2"/>
				</g>
			</g>
			<g class="st0">
				<defs>
					<path id="SVGID_49_" class="st0" d="M576.7,318.6c-1.2-0.6-4.1-2.4-6.2-4l-9.4-7c2.1,1.6,5,3.4,6.2,4
						C570.1,313.7,573.8,316.5,576.7,318.6z"/>
				</defs>
				<clipPath id="SVGID_50_">
					<use xlink:href="#SVGID_49_"  style="overflow:visible;"/>
				</clipPath>
				<g class="st35">
					<path class="st16" d="M567.2,311.6l9.4,7c-1.2-0.6-4.1-2.4-6.2-4l-9.4-7C563.1,309.2,566,311.1,567.2,311.6"/>
				</g>
			</g>
			<g class="st0">
				<defs>
					<path id="SVGID_51_" class="st0" d="M568.9,317.2l-9.4-7c2.9,2.1,6.4,4.1,6.5,4.1l9.4,7C575.3,321.3,571.8,319.3,568.9,317.2z"
						/>
				</defs>
				<clipPath id="SVGID_52_">
					<use xlink:href="#SVGID_51_"  style="overflow:visible;"/>
				</clipPath>
				<g class="st36">
					<path d="M565.9,314.3l9.4,7c-0.1,0-3.6-2-6.5-4.1l-9.4-7C562.3,312.3,565.9,314.3,565.9,314.3"/>
				</g>
			</g>
			<g class="st0">
				<defs>
					<path id="SVGID_53_" class="st0" d="M576.7,318.6c-0.2-0.1-0.4-0.3-0.5-0.4c-0.8-0.6-1.6-1.1-2.3-1.7c-2.2-1.6-4.4-3.2-6.6-4.8
						c0.6,0.3,1.2,0.4,1.8,0.4c1.8,1.3,3.6,2.6,5.3,3.9c0.4,0.3,0.9,0.6,1.2,0.9c0.2,0.1,0.4,0.3,0.6,0.4c0.2,0.1,0.4,0.3,0.6,0.4
						c0.2,0.1,0.4,0.3,0.6,0.4c0.3,0.2,0.7,0.7,1.1,0.8C577.9,319,577.3,318.9,576.7,318.6z"/>
				</defs>
				<clipPath id="SVGID_54_">
					<use xlink:href="#SVGID_53_"  style="overflow:visible;"/>
				</clipPath>
				<g class="st37">
					<path class="st16" d="M573.1,310l9.4,7c-1.4,1.2-2.7,2-4.1,2c-0.6,0-1.2-0.1-1.8-0.4l-9.4-7c0.6,0.3,1.2,0.4,1.8,0.4
						C570.4,312.1,571.7,311.3,573.1,310"/>
				</g>
			</g>
			<g class="st0">
				<defs>
					<path id="SVGID_55_" class="st0" d="M578.5,319C578.5,319,578.5,319,578.5,319c-3.2-2.3-6.3-4.6-9.4-7c0,0,0,0,0,0
						C572.2,314.4,575.3,316.7,578.5,319z"/>
				</defs>
				<clipPath id="SVGID_56_">
					<use xlink:href="#SVGID_55_"  style="overflow:visible;"/>
				</clipPath>
				<g class="st38">
					<path class="st16" d="M573.1,310l9.4,7c-1.4,1.2-2.7,2-4.1,2c-0.6,0-1.2-0.1-1.8-0.4l-9.4-7c0.6,0.3,1.2,0.4,1.8,0.4
						C570.4,312.1,571.7,311.3,573.1,310"/>
				</g>
			</g>
			<g class="st0">
				<defs>
					<path id="SVGID_57_" class="st0" d="M583.8,315.8c-2,1.9-3.5,3.2-5.4,3.2c-3.1-2.3-6.3-4.6-9.4-7c1.8,0,3.4-1.3,5.4-3.2
						C577.5,311.1,580.7,313.5,583.8,315.8z"/>
				</defs>
				<clipPath id="SVGID_58_">
					<use xlink:href="#SVGID_57_"  style="overflow:visible;"/>
				</clipPath>
				<g class="st39">
					<path class="st40" d="M575.6,307.7l9.4,7c-0.4,0.4-0.8,0.8-1.2,1.2c-0.4,0.4-0.9,0.8-1.3,1.2l-9.4-7c0.4-0.4,0.8-0.8,1.3-1.2
						C574.8,308.4,575.2,308,575.6,307.7"/>
					<path class="st16" d="M573.1,310l9.4,7c-1.4,1.2-2.7,2-4.1,2c-0.6,0-1.2-0.1-1.8-0.4l-9.4-7c0.6,0.3,1.2,0.4,1.8,0.4
						C570.4,312.1,571.7,311.3,573.1,310"/>
				</g>
			</g>
			<g class="st0">
				<defs>
					<path id="SVGID_59_" class="st0" d="M585.8,314c-0.6,0.5-1.3,1.1-2,1.7c-3.1-2.3-6.3-4.6-9.4-7c0.7-0.6,1.3-1.2,2-1.7
						C580.8,310.3,581.3,310.7,585.8,314z"/>
				</defs>
				<clipPath id="SVGID_60_">
					<use xlink:href="#SVGID_59_"  style="overflow:visible;"/>
				</clipPath>
				<g class="st41">
					<path class="st16" d="M576.3,307.1l9.4,7c-0.2,0.2-0.5,0.4-0.7,0.6l-9.4-7C575.9,307.4,576.1,307.2,576.3,307.1"/>
					<path class="st40" d="M575.6,307.7l9.4,7c-0.4,0.4-0.8,0.8-1.2,1.2c-0.4,0.4-0.9,0.8-1.3,1.2l-9.4-7c0.4-0.4,0.8-0.8,1.3-1.2
						C574.8,308.4,575.2,308,575.6,307.7"/>
				</g>
			</g>
			<g class="st0">
				<defs>
					<path id="SVGID_61_" class="st0" d="M578.1,309.4l9.4,7c-0.6,0.4-1.1,1-1.7,1.6c-1.8,1.7-4.2,4.1-7.5,4.1c-0.9,0-1.9-0.2-3-0.7
						l-9.4-7c1.1,0.5,2.1,0.7,3,0.7c3.2,0,5.7-2.4,7.5-4.1C577,310.4,577.6,309.8,578.1,309.4z"/>
				</defs>
				<clipPath id="SVGID_62_">
					<use xlink:href="#SVGID_61_"  style="overflow:visible;"/>
				</clipPath>
				<g class="st42">
					<path d="M578.1,309.4l9.4,7c-0.2,0.1-0.4,0.3-0.6,0.5l-9.4-7C577.7,309.7,577.9,309.5,578.1,309.4"/>
					<path d="M577.5,309.9l9.4,7c-0.4,0.3-0.8,0.7-1.2,1.1c-0.4,0.4-0.9,0.8-1.4,1.3l-9.4-7c0.5-0.4,0.9-0.9,1.4-1.3
						C576.8,310.6,577.2,310.2,577.5,309.9"/>
					<path d="M575,312.2l9.4,7c-1.6,1.4-3.6,2.8-6.1,2.8c-0.9,0-1.9-0.2-3-0.7l-9.4-7c1.1,0.5,2.1,0.7,3,0.7
						C571.4,315,573.4,313.6,575,312.2"/>
				</g>
			</g>
			<g>
				<polygon class="st43" points="595.8,285.6 605.2,292.6 602.7,295.2 593.3,288.3 				"/>
			</g>
			<g class="st0">
				<defs>
					<path id="SVGID_63_" class="st0" d="M604.1,276.7l9.4,7c-1.8,1.9-3.1,3.3-4.4,4.7c-1.3,1.4-2.6,2.8-4,4.2l-9.4-7
						c1.3-1.4,2.6-2.8,4-4.2C601,280,602.3,278.6,604.1,276.7z"/>
				</defs>
				<clipPath id="SVGID_64_">
					<use xlink:href="#SVGID_63_"  style="overflow:visible;"/>
				</clipPath>
				<g class="st44">
					<path class="st40" d="M604.1,276.7l9.4,7c-1.8,1.9-3.1,3.3-4.4,4.7c-1.3,1.4-2.6,2.8-4,4.2l-9.4-7c1.3-1.4,2.6-2.8,4-4.2
						C601,280,602.3,278.6,604.1,276.7"/>
				</g>
			</g>
			<g>
				<polygon points="597.3,288.1 606.8,295.1 602.7,295.2 593.3,288.3 				"/>
			</g>
			<g class="st0">
				<defs>
					<path id="SVGID_65_" class="st0" d="M597.2,304.8c-3.8,3.1-7.6,6.2-11.4,9.3l-9.4-7c3.8-3.1,7.6-6.2,11.4-9.3
						c3.5-2.8,7-5.7,10.4-8.5c3.1,2.3,6.3,4.6,9.4,7C604.1,299.1,600.7,301.9,597.2,304.8z"/>
				</defs>
				<clipPath id="SVGID_66_">
					<use xlink:href="#SVGID_65_"  style="overflow:visible;"/>
				</clipPath>
				<g class="st45">
					<path class="st16" d="M599.1,288.6l9.4,7c-3.8,3.1-7.6,6.2-11.4,9.2c-3.8,3.1-7.6,6.2-11.4,9.3l-9.4-7
						c3.8-3.1,7.6-6.2,11.4-9.3C591.5,294.7,595.3,291.6,599.1,288.6"/>
				</g>
			</g>
			<g class="st0">
				<defs>
					<path id="SVGID_67_" class="st0" d="M605.3,279.7l9.4,7c-1.1,1.2-2.3,2.5-3.4,3.7c-0.7,0.7-1.3,1.4-2,2.1l-9.4-7
						c0.7-0.7,1.3-1.4,2-2.1C603,282.2,604.2,280.9,605.3,279.7z"/>
				</defs>
				<clipPath id="SVGID_68_">
					<use xlink:href="#SVGID_67_"  style="overflow:visible;"/>
				</clipPath>
				<g class="st46">
					<path d="M605.3,279.7l9.4,7c-1.1,1.2-2.3,2.5-3.4,3.7c-0.7,0.7-1.3,1.4-2,2.1l-9.4-7c0.7-0.7,1.3-1.4,2-2.1
						C603,282.2,604.2,280.9,605.3,279.7"/>
				</g>
			</g>
			<g class="st0">
				<defs>
					<path id="SVGID_69_" class="st0" d="M599,288.5l9.4,7c-0.3-0.3-0.8-0.4-1.7-0.4l-9.4-7C598.2,288.1,598.7,288.2,599,288.5z"/>
				</defs>
				<clipPath id="SVGID_70_">
					<use xlink:href="#SVGID_69_"  style="overflow:visible;"/>
				</clipPath>
				<g class="st47">
					<path d="M599,288.5l9.4,7c-0.3-0.3-0.8-0.4-1.7-0.4l-9.4-7C598.2,288.1,598.7,288.2,599,288.5"/>
				</g>
			</g>
			<g class="st0">
				<defs>
					<path id="SVGID_71_" class="st0" d="M607.6,296.3c-0.4-0.3-0.9-0.6-1.3-0.9c-1.5-1.1-2.9-2.2-4.4-3.2c-0.3-0.2-0.8-0.6-1.1-0.8
						c-0.2-0.1-0.4-0.3-0.6-0.4c-0.3-0.2-0.8-0.6-1.1-0.8c-0.2-0.1-0.4-0.3-0.5-0.4c-0.1-0.1-0.3-0.4-0.5-0.4
						c0.3-0.3,0.6-0.5,0.9-0.8l9.4,7C608.3,295.8,607.9,296,607.6,296.3z"/>
				</defs>
				<clipPath id="SVGID_72_">
					<use xlink:href="#SVGID_71_"  style="overflow:visible;"/>
				</clipPath>
				<g class="st48">
					<path class="st16" d="M599.1,288.6l9.4,7c-3.8,3.1-7.6,6.2-11.4,9.2c-3.8,3.1-7.6,6.2-11.4,9.3l-9.4-7
						c3.8-3.1,7.6-6.2,11.4-9.3C591.5,294.7,595.3,291.6,599.1,288.6"/>
				</g>
			</g>
			<g class="st0">
				<defs>
					<path id="SVGID_73_" class="st0" d="M608.6,295.5c-3.1-2.3-6.3-4.6-9.4-7c0,0-0.1-0.1-0.1-0.1l9.4,7
						C608.5,295.5,608.5,295.5,608.6,295.5z"/>
				</defs>
				<clipPath id="SVGID_74_">
					<use xlink:href="#SVGID_73_"  style="overflow:visible;"/>
				</clipPath>
				<g class="st49">
					<path class="st8" d="M599,288.5l9.4,7c0,0,0.1,0.1,0.1,0.1l-9.4-7C599.1,288.5,599.1,288.5,599,288.5"/>
				</g>
			</g>
			<g class="st0">
				<defs>
					<path id="SVGID_75_" class="st0" d="M600.7,286l9.4,7c0.5,0.4,1,0.9,1.5,1.6l-9.4-7C601.7,287,601.3,286.4,600.7,286z"/>
				</defs>
				<clipPath id="SVGID_76_">
					<use xlink:href="#SVGID_75_"  style="overflow:visible;"/>
				</clipPath>
				<g class="st50">
					<path d="M600.7,286l9.4,7c0.1,0.1,0.2,0.2,0.3,0.3l-9.4-7C601,286.2,600.9,286.1,600.7,286"/>
					<path d="M601.1,286.3l9.4,7c0.2,0.2,0.5,0.5,0.7,0.7l-9.4-7C601.5,286.8,601.3,286.5,601.1,286.3"/>
					<path d="M601.8,287l9.4,7c0.2,0.2,0.3,0.4,0.5,0.6l-9.4-7C602.1,287.4,601.9,287.2,601.8,287"/>
				</g>
			</g>
			<g class="st0">
				<defs>
					<path id="SVGID_77_" class="st0" d="M602,289.6l9.4,7c-4.7,4.2-8.6,7.4-12.5,10.5c-3.8,3.1-7.6,6.2-11.5,9.3l-9.4-7
						c3.8-3.1,7.6-6.2,11.5-9.3C593.4,297,597.3,293.8,602,289.6z"/>
				</defs>
				<clipPath id="SVGID_78_">
					<use xlink:href="#SVGID_77_"  style="overflow:visible;"/>
				</clipPath>
				<g class="st51">
					<path d="M602,289.6l9.4,7c-0.6,0.5-1.1,1-1.6,1.4l-9.4-7C600.9,290.6,601.5,290.1,602,289.6"/>
					<path d="M600.4,291l9.4,7c-4,3.5-7.4,6.3-10.8,9.1c-3.8,3.1-7.6,6.2-11.5,9.3l-9.4-7c3.8-3.1,7.6-6.2,11.5-9.3
						C593,297.3,596.4,294.5,600.4,291"/>
				</g>
			</g>
			<g>
				<polygon points="602.9,288.7 612.4,295.6 611.5,296.5 602,289.6 				"/>
			</g>
			<g>
				<polygon points="602.2,287.7 611.7,294.6 612.4,295.6 602.9,288.7 				"/>
			</g>
			<g>
				<polygon class="st17" points="621.5,276.7 631,283.7 613.6,283.7 604.1,276.7 				"/>
			</g>
			<g>
				<polygon points="618.5,279.7 628,286.7 614.8,286.7 605.3,279.7 				"/>
			</g>
			<g>
				<polygon points="621.5,276.7 631,283.7 630.9,285.2 621.5,278.2 				"/>
			</g>
			<g class="st0">
				<defs>
					<path id="SVGID_79_" class="st0" d="M646,143.7l9.4,7c16.4,17.7,33.3,36.1,49.9,54.2l-9.4-7C679.3,179.8,662.4,161.5,646,143.7
						z"/>
				</defs>
				<clipPath id="SVGID_80_">
					<use xlink:href="#SVGID_79_"  style="overflow:visible;"/>
				</clipPath>
				<g class="st52">
					<path d="M646,143.7l9.4,7c16.4,17.7,33.3,36.1,49.9,54.2l-9.4-7C679.3,179.8,662.4,161.5,646,143.7"/>
				</g>
			</g>
			<g class="st0">
				<defs>
					<path id="SVGID_81_" class="st0" d="M643.8,145.8l9.4,7c16.5,17.9,33.6,36.4,50.4,54.7l-9.4-7
						C677.4,182.2,660.3,163.7,643.8,145.8z"/>
				</defs>
				<clipPath id="SVGID_82_">
					<use xlink:href="#SVGID_81_"  style="overflow:visible;"/>
				</clipPath>
				<g class="st53">
					<path class="st9" d="M643.8,145.8l9.4,7c16.5,17.9,33.6,36.4,50.4,54.7l-9.4-7C677.4,182.2,660.3,163.7,643.8,145.8"/>
				</g>
			</g>
			<g class="st0">
				<defs>
					<path id="SVGID_83_" class="st0" d="M697.4,200.8l9.4,7c-0.7,0-1.5,0.1-2.1,0.1l-9.4-7C695.9,200.9,696.6,200.8,697.4,200.8z"
						/>
				</defs>
				<clipPath id="SVGID_84_">
					<use xlink:href="#SVGID_83_"  style="overflow:visible;"/>
				</clipPath>
				<g class="st54">
					<path d="M697.4,200.8l9.4,7c-0.7,0-1.5,0.1-2.1,0.1l-9.4-7C695.9,200.9,696.6,200.8,697.4,200.8"/>
				</g>
			</g>
			<g class="st0">
				<defs>
					<path id="SVGID_85_" class="st0" d="M703.8,200.8l9.4,7c-0.8-0.1-1.7-0.1-2.6-0.1c-1.3,0-2.6,0.1-3.7,0.1l-9.4-7
						c1.2,0,2.5-0.1,3.7-0.1C702,200.7,702.9,200.7,703.8,200.8z"/>
				</defs>
				<clipPath id="SVGID_86_">
					<use xlink:href="#SVGID_85_"  style="overflow:visible;"/>
				</clipPath>
				<g class="st55">
					<path d="M703.8,200.8l9.4,7c-0.8-0.1-1.7-0.1-2.6-0.1c-1.3,0-2.6,0.1-3.7,0.1l-9.4-7c1.2,0,2.5-0.1,3.7-0.1
						C702,200.7,702.9,200.7,703.8,200.8"/>
				</g>
			</g>
			<g>
				<polygon class="st17" points="699,200.9 708.5,207.9 704.7,207.9 695.3,200.9 				"/>
			</g>
			<g class="st0">
				<defs>
					<path id="SVGID_87_" class="st0" d="M699.8,200.9l9.4,7c-0.3,0-0.5,0-0.8,0l-9.4-7C699.3,200.9,699.5,200.9,699.8,200.9z"/>
				</defs>
				<clipPath id="SVGID_88_">
					<use xlink:href="#SVGID_87_"  style="overflow:visible;"/>
				</clipPath>
				<g class="st56">
					<path class="st16" d="M699.8,200.9l9.4,7c-0.3,0-0.5,0-0.8,0l-9.4-7C699.3,200.9,699.5,200.9,699.8,200.9"/>
				</g>
			</g>
			<g class="st0">
				<defs>
					<path id="SVGID_89_" class="st0" d="M709.9,207.9c-0.2,0-0.4,0-0.6,0l-9.4-7c0.2,0,0.4,0,0.6,0
						C703.6,203.2,706.7,205.5,709.9,207.9z"/>
				</defs>
				<clipPath id="SVGID_90_">
					<use xlink:href="#SVGID_89_"  style="overflow:visible;"/>
				</clipPath>
				<g class="st57">
					<path class="st16" d="M703.8,200.8l9.4,7c-1.3,0.1-2.6,0.1-3.9,0.1l-9.4-7C701.1,200.9,702.5,200.9,703.8,200.8"/>
				</g>
			</g>
			<g>
				<polygon class="st21" points="694.2,200.4 703.6,207.4 707.7,211.8 698.3,204.9 				"/>
			</g>
			<g class="st0">
				<defs>
					<path id="SVGID_91_" class="st0" d="M709.9,207.9C709.8,207.8,709.8,207.8,709.9,207.9c-0.3-0.2-0.5-0.4-0.7-0.5
						c-0.2-0.2-0.5-0.4-0.7-0.5c-2.7-2-5.3-3.9-8-5.9c1.1,0,2.3,0,3.3-0.1l9.4,7C712.1,207.8,711,207.8,709.9,207.9z"/>
				</defs>
				<clipPath id="SVGID_92_">
					<use xlink:href="#SVGID_91_"  style="overflow:visible;"/>
				</clipPath>
				<g class="st58">
					<path class="st16" d="M703.8,200.8l9.4,7c-1.3,0.1-2.6,0.1-3.9,0.1l-9.4-7C701.1,200.9,702.5,200.9,703.8,200.8"/>
				</g>
			</g>
			<g>
				<path class="st59" d="M699.8,200.9c-0.3,0-0.5,0-0.8,0h-3.8c0.7,0,1.4-0.1,2.1-0.1c1.2,0,2.5-0.1,3.7-0.1c0.9,0,1.8,0,2.6,0.1
					C702.5,200.9,701.1,200.9,699.8,200.9z"/>
			</g>
			<g>
				<polygon points="709.5,199.7 718.9,206.6 718.7,207.6 709.2,200.7 				"/>
			</g>
			<g class="st0">
				<defs>
					<path id="SVGID_93_" class="st0" d="M708.7,202.3l9.4,7c-2.8,1.4-5.1,1.5-7.4,1.5l-9.4-7C703.7,203.8,706,203.7,708.7,202.3z"
						/>
				</defs>
				<clipPath id="SVGID_94_">
					<use xlink:href="#SVGID_93_"  style="overflow:visible;"/>
				</clipPath>
				<g class="st60">
					<path d="M708.7,202.3l9.4,7c-2.8,1.4-5.1,1.5-7.4,1.5l-9.4-7C703.7,203.8,706,203.7,708.7,202.3"/>
				</g>
			</g>
			<g class="st0">
				<defs>
					<path id="SVGID_95_" class="st0" d="M709.2,200.7l9.4,7c-0.1,0.6-0.3,1-0.5,1.6l-9.4-7C709,201.7,709.1,201.2,709.2,200.7z"/>
				</defs>
				<clipPath id="SVGID_96_">
					<use xlink:href="#SVGID_95_"  style="overflow:visible;"/>
				</clipPath>
				<g class="st61">
					<path d="M709.2,200.7l9.4,7c0,0.1,0,0.2-0.1,0.3l-9.4-7C709.2,200.9,709.2,200.8,709.2,200.7"/>
					<path d="M709.2,201l9.4,7c-0.1,0.3-0.2,0.6-0.3,1l-9.4-7C709,201.6,709.1,201.3,709.2,201"/>
					<path d="M708.9,201.9l9.4,7c0,0.1-0.1,0.3-0.2,0.4l-9.4-7C708.8,202.2,708.8,202.1,708.9,201.9"/>
				</g>
			</g>
			<g class="st0">
				<defs>
					<path id="SVGID_97_" class="st0" d="M712.7,217.4c-3.1-2.3-6.3-4.6-9.4-7c-0.1-0.1-0.1-0.2-0.2-0.2c-1.6-1.8-3.2-3.6-4.8-5.3
						l9.4,7c1.6,1.8,3.2,3.6,4.8,5.3C712.5,217.2,712.6,217.3,712.7,217.4z"/>
				</defs>
				<clipPath id="SVGID_98_">
					<use xlink:href="#SVGID_97_"  style="overflow:visible;"/>
				</clipPath>
				<g class="st62">
					<path class="st9" d="M698.3,204.9l9.4,7c1.6,1.8,3.2,3.6,4.8,5.3c1.6,1.8,3.2,3.6,4.8,5.4l-9.4-7c-1.6-1.8-3.2-3.6-4.8-5.4
						C701.4,208.4,699.8,206.6,698.3,204.9"/>
				</g>
			</g>
			<g class="st0">
				<defs>
					<path id="SVGID_99_" class="st0" d="M621.5,278.2l9.4,7c-0.1,2.1-0.1,4.1-0.2,6.2c-0.5,19.4-0.9,37.8-6.5,51.8l-9.4-7
						c5.6-14,6-32.4,6.5-51.8C621.4,282.3,621.4,280.3,621.5,278.2z"/>
				</defs>
				<clipPath id="SVGID_100_">
					<use xlink:href="#SVGID_99_"  style="overflow:visible;"/>
				</clipPath>
				<g class="st63">
					<path d="M621.5,278.2l9.4,7c-0.1,2.1-0.1,4.1-0.2,6.2c-0.2,10.4-0.5,20.4-1.5,29.6l-9.4-7c1-9.2,1.2-19.3,1.5-29.6
						C621.4,282.3,621.4,280.3,621.5,278.2"/>
					<path d="M619.8,314l9.4,7c-0.5,4.7-1.2,9.3-2.3,13.5l-9.4-7C618.6,323.3,619.3,318.8,619.8,314"/>
					<path d="M617.6,327.5l9.4,7c-0.6,2.5-1.3,5-2.2,7.3l-9.4-7C616.2,332.5,617,330.1,617.6,327.5"/>
					<path d="M615.4,334.8l9.4,7c-0.2,0.5-0.3,0.9-0.5,1.4l-9.4-7C615.1,335.8,615.2,335.3,615.4,334.8"/>
				</g>
			</g>
			<g class="st0">
				<defs>
					<path id="SVGID_101_" class="st0" d="M625.6,344.8l-9.4-7c-0.7-0.5-1.1-1-1.3-1.6l9.4,7C624.5,343.8,624.9,344.3,625.6,344.8z"
						/>
				</defs>
				<clipPath id="SVGID_102_">
					<use xlink:href="#SVGID_101_"  style="overflow:visible;"/>
				</clipPath>
				<g class="st64">
					<path d="M614.9,336.2l9.4,7c0.1,0.3,0.2,0.5,0.4,0.8l-9.4-7C615.1,336.7,614.9,336.5,614.9,336.2"/>
					<path d="M615.3,337l9.4,7c0.1,0.2,0.3,0.3,0.4,0.4l-9.4-7C615.5,337.3,615.4,337.1,615.3,337"/>
					<path d="M615.7,337.4l9.4,7c0.1,0.1,0.3,0.2,0.5,0.4l-9.4-7C616,337.7,615.8,337.6,615.7,337.4"/>
				</g>
			</g>
			<g class="st0">
				<defs>
					<path id="SVGID_103_" class="st0" d="M712.7,217.4c1.5,1.7,3.1,3.4,4.6,5.1l-9.4-7c-1.5-1.7-3-3.4-4.6-5.1c3,2.2,6,4.4,9,6.7
						C712.4,217.2,712.5,217.3,712.7,217.4z"/>
				</defs>
				<clipPath id="SVGID_104_">
					<use xlink:href="#SVGID_103_"  style="overflow:visible;"/>
				</clipPath>
				<g class="st65">
					<path class="st9" d="M698.3,204.9l9.4,7c1.6,1.8,3.2,3.6,4.8,5.3c1.6,1.8,3.2,3.6,4.8,5.4l-9.4-7c-1.6-1.8-3.2-3.6-4.8-5.4
						C701.4,208.4,699.8,206.6,698.3,204.9"/>
				</g>
			</g>
			<g class="st0">
				<defs>
					<path id="SVGID_105_" class="st0" d="M701.4,203.9l9.4,7c1.3,1.5,2.6,2.9,3.9,4.3c1.5,1.6,3,3.3,4.4,4.9l-9.4-7
						c-1.5-1.6-2.9-3.3-4.4-4.9C703.9,206.7,702.7,205.3,701.4,203.9z"/>
				</defs>
				<clipPath id="SVGID_106_">
					<use xlink:href="#SVGID_105_"  style="overflow:visible;"/>
				</clipPath>
				<g class="st66">
					<path d="M701.4,203.9l9.4,7c1.3,1.5,2.6,2.9,3.9,4.3c1.5,1.6,3,3.3,4.4,4.9l-9.4-7c-1.5-1.6-2.9-3.3-4.4-4.9
						C703.9,206.7,702.7,205.3,701.4,203.9"/>
				</g>
			</g>
			<g class="st0">
				<defs>
					<path id="SVGID_107_" class="st0" d="M627.4,345.9c-0.7-0.4-1.3-0.7-1.8-1.1l-9.4-7c0.5,0.4,1.1,0.7,1.8,1.1c0,0,0,0,0,0
						C621.1,341.2,624.3,343.6,627.4,345.9C627.4,345.9,627.4,345.9,627.4,345.9z"/>
				</defs>
				<clipPath id="SVGID_108_">
					<use xlink:href="#SVGID_107_"  style="overflow:visible;"/>
				</clipPath>
				<g class="st67">
					<path class="st16" d="M619.4,339.8l9.4,7c-0.4-0.3-0.9-0.6-1.4-0.9c-0.7-0.4-1.3-0.7-1.8-1.1l-9.4-7c0.5,0.4,1.1,0.7,1.8,1.1
						C618.5,339.2,619,339.5,619.4,339.8"/>
				</g>
			</g>
			<g class="st0">
				<defs>
					<path id="SVGID_109_" class="st0" d="M628.8,346.7c-0.4-0.3-0.9-0.6-1.4-0.9c-3.1-2.3-6.3-4.6-9.4-7c0.5,0.3,1,0.6,1.4,0.9
						C622.2,341.9,626,344.6,628.8,346.7z"/>
				</defs>
				<clipPath id="SVGID_110_">
					<use xlink:href="#SVGID_109_"  style="overflow:visible;"/>
				</clipPath>
				<g class="st68">
					<path class="st16" d="M619.4,339.8l9.4,7c-0.4-0.3-0.9-0.6-1.4-0.9c-0.7-0.4-1.3-0.7-1.8-1.1l-9.4-7c0.5,0.4,1.1,0.7,1.8,1.1
						C618.5,339.2,619,339.5,619.4,339.8"/>
				</g>
			</g>
			<g class="st0">
				<defs>
					<path id="SVGID_111_" class="st0" d="M629.1,346.9c-0.1-0.1-0.2-0.1-0.3-0.2l-9.4-7c0.1,0.1,0.2,0.1,0.3,0.2
						C622.5,342.1,626.3,344.9,629.1,346.9z"/>
				</defs>
				<clipPath id="SVGID_112_">
					<use xlink:href="#SVGID_111_"  style="overflow:visible;"/>
				</clipPath>
				<g class="st69">
					<path class="st16" d="M619.7,340l9.4,7c-0.1-0.1-0.2-0.1-0.3-0.2l-9.4-7C619.5,339.8,619.6,339.9,619.7,340"/>
				</g>
			</g>
			<g class="st0">
				<defs>
					<path id="SVGID_113_" class="st0" d="M618,342.5l9.4,7c-0.1-0.1-0.2-0.2-0.4-0.3c-0.3-0.2-0.8-0.5-1.2-0.7
						c-0.6-0.4-1.4-0.8-2-1.3l-9.4-7c0.7,0.5,1.4,0.9,2,1.3c0.4,0.2,0.9,0.5,1.2,0.7C617.8,342.3,617.9,342.4,618,342.5z"/>
				</defs>
				<clipPath id="SVGID_114_">
					<use xlink:href="#SVGID_113_"  style="overflow:visible;"/>
				</clipPath>
				<g class="st70">
					<path d="M618,342.5l9.4,7c-0.1-0.1-0.2-0.2-0.4-0.3c-0.3-0.2-0.8-0.5-1.2-0.7c-0.6-0.4-1.4-0.8-2-1.3l-9.4-7
						c0.7,0.5,1.4,0.9,2,1.3c0.4,0.2,0.9,0.5,1.2,0.7C617.8,342.3,617.9,342.4,618,342.5"/>
				</g>
			</g>
			<g class="st0">
				<defs>
					<path id="SVGID_115_" class="st0" d="M619.7,340l9.4,7c0.7,0.5,1.5,1.2,2.4,1.9c1,0.8,2.2,1.8,3.4,2.7l-9.4-7
						c-1.2-0.9-2.4-1.9-3.4-2.7C621.2,341.2,620.4,340.5,619.7,340z"/>
				</defs>
				<clipPath id="SVGID_116_">
					<use xlink:href="#SVGID_115_"  style="overflow:visible;"/>
				</clipPath>
				<g class="st71">
					<path d="M619.7,340l9.4,7c0.7,0.5,1.5,1.2,2.4,1.9c1,0.8,2.2,1.8,3.4,2.7l-9.4-7c-1.2-0.9-2.4-1.9-3.4-2.7
						C621.2,341.2,620.4,340.5,619.7,340"/>
				</g>
			</g>
			<g>
				<polygon points="722.1,217.2 731.5,224.2 717.6,222.9 708.2,216 				"/>
			</g>
			<g class="st0">
				<defs>
					<path id="SVGID_117_" class="st0" d="M643.3,355.3c-2.6,0-5.6-1.8-8.3-3.7l-9.4-7c2.7,2,5.6,3.7,8.3,3.7
						C637,350.7,640.1,353,643.3,355.3z"/>
				</defs>
				<clipPath id="SVGID_118_">
					<use xlink:href="#SVGID_117_"  style="overflow:visible;"/>
				</clipPath>
				<g class="st72">
					<path class="st16" d="M636.4,347.7l9.4,7c-0.8,0.5-1.6,0.7-2.5,0.7c-2.6,0-5.6-1.8-8.3-3.7l-9.4-7c2.7,2,5.7,3.7,8.3,3.7
						C634.7,348.3,635.6,348.1,636.4,347.7"/>
				</g>
			</g>
			<g class="st0">
				<defs>
					<path id="SVGID_119_" class="st0" d="M645.8,354.6c-0.8,0.5-1.6,0.7-2.5,0.7c-3.1-2.3-6.3-4.6-9.4-7c0,0,0,0,0,0
						c3.1,2.3,6.3,4.6,9.4,6.9c-3.1-2.3-6.3-4.6-9.4-6.9c0.9,0,1.8-0.2,2.5-0.7C639.2,349.8,643,352.5,645.8,354.6z"/>
				</defs>
				<clipPath id="SVGID_120_">
					<use xlink:href="#SVGID_119_"  style="overflow:visible;"/>
				</clipPath>
				<g class="st73">
					<path class="st16" d="M636.4,347.7l9.4,7c-0.8,0.5-1.6,0.7-2.5,0.7c-2.6,0-5.6-1.8-8.3-3.7l-9.4-7c2.7,2,5.7,3.7,8.3,3.7
						C634.7,348.3,635.6,348.1,636.4,347.7"/>
				</g>
			</g>
			<g class="st0">
				<defs>
					<path id="SVGID_121_" class="st0" d="M633.2,354l-9.4-7c3,2.2,6.5,4.3,10,4.3c1.4,0,2.9-0.4,4.6-1.5l9.4,7
						c-1.7,1.1-3.1,1.5-4.6,1.5C639.8,358.3,636.3,356.3,633.2,354z"/>
				</defs>
				<clipPath id="SVGID_122_">
					<use xlink:href="#SVGID_121_"  style="overflow:visible;"/>
				</clipPath>
				<g class="st74">
					<path d="M638.3,349.9l9.4,7c-1.7,1.1-3.1,1.5-4.6,1.5c-3.4,0-6.9-2-10-4.3l-9.4-7c3,2.2,6.5,4.3,10,4.3
						C635.2,351.3,636.6,351,638.3,349.9"/>
				</g>
			</g>
			<g class="st0">
				<defs>
					<path id="SVGID_123_" class="st0" d="M735.2,220.2l9.4,7c-2.2-0.5-4.4-1-6.6-1.5c-2.2-0.5-4.4-1-6.6-1.5l-9.4-7
						c2.2,0.5,4.4,1,6.6,1.5C730.8,219.2,733,219.7,735.2,220.2z"/>
				</defs>
				<clipPath id="SVGID_124_">
					<use xlink:href="#SVGID_123_"  style="overflow:visible;"/>
				</clipPath>
				<g class="st75">
					<path d="M735.2,220.2l9.4,7c-2.2-0.5-4.4-1-6.6-1.5c-2.2-0.5-4.4-1-6.6-1.5l-9.4-7c2.2,0.5,4.4,1,6.6,1.5
						C730.8,219.2,733,219.7,735.2,220.2"/>
				</g>
			</g>
			<g class="st0">
				<defs>
					<path id="SVGID_125_" class="st0" d="M682.8,316.5c-12.2,12.5-24.7,25.4-37,38.1l-9.4-7c12.3-12.7,24.9-25.6,37-38.1
						c0,0,0,0,0,0C676.6,311.8,679.7,314.1,682.8,316.5c-3.1-2.4-6.3-4.7-9.4-7c6-6.2,12.1-12.4,18.8-19.1l9.4,7
						C694.9,304.1,688.9,310.3,682.8,316.5z"/>
				</defs>
				<clipPath id="SVGID_126_">
					<use xlink:href="#SVGID_125_"  style="overflow:visible;"/>
				</clipPath>
				<g class="st76">
					<path class="st40" d="M692.2,290.4l9.4,7c-6.7,6.7-12.8,12.9-18.8,19.1c-12.2,12.5-24.7,25.4-37,38.1l-9.4-7
						c12.3-12.7,24.9-25.6,37-38.1C679.4,303.3,685.5,297.1,692.2,290.4"/>
				</g>
			</g>
			<g class="st0">
				<defs>
					<path id="SVGID_127_" class="st0" d="M742.1,223.4l9.4,7c-1.4-0.6-2.5-1.1-3.7-1.7c-1.1-0.5-2.2-1-3.2-1.5l-9.4-7
						c1.1,0.5,2.1,1,3.2,1.5C739.6,222.2,740.7,222.7,742.1,223.4z"/>
				</defs>
				<clipPath id="SVGID_128_">
					<use xlink:href="#SVGID_127_"  style="overflow:visible;"/>
				</clipPath>
				<g class="st77">
					<path d="M742.1,223.4l9.4,7c-1.4-0.6-2.5-1.1-3.7-1.7c-1.1-0.5-2.2-1-3.2-1.5l-9.4-7c1.1,0.5,2.1,1,3.2,1.5
						C739.6,222.2,740.7,222.7,742.1,223.4"/>
				</g>
			</g>
			<g class="st0">
				<defs>
					<path id="SVGID_129_" class="st0" d="M693.2,293.4l9.4,7c-5.9,6.1-11.8,12.1-17.7,18.2c-12.2,12.5-24.8,25.5-37.2,38.3l-9.4-7
						c12.3-12.8,25-25.7,37.2-38.3C681.4,305.5,687.3,299.5,693.2,293.4z"/>
				</defs>
				<clipPath id="SVGID_130_">
					<use xlink:href="#SVGID_129_"  style="overflow:visible;"/>
				</clipPath>
				<g class="st78">
					<path d="M693.2,293.4l9.4,7c-5.9,6.1-11.8,12.1-17.7,18.2c-12.2,12.5-24.8,25.5-37.2,38.3l-9.4-7c12.3-12.8,25-25.7,37.2-38.3
						C681.4,305.5,687.3,299.5,693.2,293.4"/>
				</g>
			</g>
			<g>
				<polygon class="st79" points="706.8,275.6 716.3,282.5 701.7,297.4 692.2,290.4 				"/>
			</g>
			<g>
				<polygon points="696.6,290.4 706.1,297.3 704.2,297.4 694.7,290.4 				"/>
			</g>
			<g class="st0">
				<defs>
					<path id="SVGID_131_" class="st0" d="M695.4,290.4l9.4,7c-0.2,0-0.5,0-0.7,0l-9.4-7C695,290.4,695.2,290.4,695.4,290.4z"/>
				</defs>
				<clipPath id="SVGID_132_">
					<use xlink:href="#SVGID_131_"  style="overflow:visible;"/>
				</clipPath>
				<g class="st80">
					<path class="st16" d="M695.4,290.4l9.4,7c-0.2,0-0.5,0-0.7,0l-9.4-7C695,290.4,695.2,290.4,695.4,290.4"/>
				</g>
			</g>
			<g class="st0">
				<defs>
					<path id="SVGID_133_" class="st0" d="M699.4,290.3l9.4,7c-0.9,0-1.9,0-2.8,0.1l-9.4-7C697.5,290.3,698.5,290.3,699.4,290.3z"/>
				</defs>
				<clipPath id="SVGID_134_">
					<use xlink:href="#SVGID_133_"  style="overflow:visible;"/>
				</clipPath>
				<g class="st81">
					<path d="M699.4,290.3l9.4,7c-0.9,0-1.9,0-2.8,0.1l-9.4-7C697.5,290.3,698.5,290.3,699.4,290.3"/>
				</g>
			</g>
			<g class="st0">
				<defs>
					<path id="SVGID_135_" class="st0" d="M706.4,297.4c-0.5,0-1.1,0-1.6,0l-9.4-7c0.5,0,1,0,1.6,0
						C700.1,292.8,703.3,295.1,706.4,297.4z"/>
				</defs>
				<clipPath id="SVGID_136_">
					<use xlink:href="#SVGID_135_"  style="overflow:visible;"/>
				</clipPath>
				<g class="st82">
					<path class="st16" d="M701.5,290.4l9.4,7c-1,0.1-2.1,0.1-3.2,0.1c-1,0-2,0-3,0l-9.4-7c1,0,2,0,3,0
						C699.5,290.5,700.5,290.5,701.5,290.4"/>
				</g>
			</g>
			<g>
				<polygon points="707.4,278.5 716.9,285.5 708.6,294.3 699.1,287.3 				"/>
			</g>
			<g>
				<polygon points="750.1,223.4 759.5,230.3 751.6,230.3 742.1,223.4 				"/>
			</g>
			<g class="st0">
				<defs>
					<path id="SVGID_137_" class="st0" d="M711,297.3c-3.1-2.3-6.3-4.6-9.4-6.9C704.4,292.5,708.1,295.2,711,297.3z"/>
				</defs>
				<clipPath id="SVGID_138_">
					<use xlink:href="#SVGID_137_"  style="overflow:visible;"/>
				</clipPath>
				<g class="st83">
					<path class="st16" d="M701.5,290.4l9.4,7c-1,0.1-2.1,0.1-3.2,0.1c-1,0-2,0-3,0l-9.4-7c1,0,2,0,3,0
						C699.5,290.5,700.5,290.5,701.5,290.4"/>
				</g>
			</g>
			<g class="st0">
				<defs>
					<path id="SVGID_139_" class="st0" d="M701.5,290.4l9.4,7c-0.7-0.1-1.4-0.1-2.1-0.1l-9.4-7C700.1,290.3,700.9,290.3,701.5,290.4
						z"/>
				</defs>
				<clipPath id="SVGID_140_">
					<use xlink:href="#SVGID_139_"  style="overflow:visible;"/>
				</clipPath>
				<g class="st84">
					<path d="M701.5,290.4l9.4,7c-0.7-0.1-1.4-0.1-2.1-0.1l-9.4-7C700.1,290.3,700.9,290.3,701.5,290.4"/>
				</g>
			</g>
			<g>
				<path class="st59" d="M696.6,290.4c0.9,0,1.9-0.1,2.8-0.1c0.7,0,1.5,0,2.1,0.1c-1,0.1-2.1,0.1-3.2,0.1c-1,0-2,0-3,0
					c-0.2,0-0.5,0-0.7,0L696.6,290.4z"/>
			</g>
			<g class="st0">
				<defs>
					<path id="SVGID_141_" class="st0" d="M706.4,297.4c-0.1,0-0.2-0.1-0.3-0.2c-0.6-0.5-1.3-1-1.9-1.4c-0.7-0.5-1.5-1.1-2.2-1.6
						c-1.7-1.2-3.4-2.5-5.1-3.7c0.5,0,0.9,0,1.4,0c1.1,0,2.2,0,3.2-0.1c3.1,2.3,6.3,4.6,9.4,7c-1,0.1-2.1,0.1-3.2,0.1
						C707.4,297.4,706.9,297.4,706.4,297.4z"/>
				</defs>
				<clipPath id="SVGID_142_">
					<use xlink:href="#SVGID_141_"  style="overflow:visible;"/>
				</clipPath>
				<g class="st85">
					<path class="st16" d="M701.5,290.4l9.4,7c-1,0.1-2.1,0.1-3.2,0.1c-1,0-2,0-3,0l-9.4-7c1,0,2,0,3,0
						C699.5,290.5,700.5,290.5,701.5,290.4"/>
				</g>
			</g>
			<g>
				<polygon points="707.1,289.2 716.5,296.2 716.3,297.2 706.8,290.2 				"/>
			</g>
			<g class="st0">
				<defs>
					<path id="SVGID_143_" class="st0" d="M706.8,290.2l9.4,7c-0.1,0.6-0.3,1-0.5,1.6l-9.4-7C706.6,291.2,706.7,290.8,706.8,290.2z"
						/>
				</defs>
				<clipPath id="SVGID_144_">
					<use xlink:href="#SVGID_143_"  style="overflow:visible;"/>
				</clipPath>
				<g class="st86">
					<path d="M706.8,290.2l9.4,7c0,0.1,0,0.2-0.1,0.3l-9.4-7C706.8,290.4,706.8,290.3,706.8,290.2"/>
					<path d="M706.8,290.5l9.4,7c-0.1,0.3-0.2,0.6-0.3,1l-9.4-7C706.6,291.1,706.7,290.8,706.8,290.5"/>
					<path d="M706.5,291.5l9.4,7c0,0.1-0.1,0.3-0.2,0.4l-9.4-7C706.4,291.7,706.4,291.6,706.5,291.5"/>
				</g>
			</g>
			<g class="st0">
				<defs>
					<path id="SVGID_145_" class="st0" d="M706.3,291.9l9.4,7c-3,1.5-5.5,1.6-8,1.6c-1,0-2,0-3,0c-0.7,0-1.4,0-2.1,0l-9.4-7
						c0.7,0,1.4,0,2.1,0c1,0,2,0,3,0C700.9,293.5,703.4,293.3,706.3,291.9z"/>
				</defs>
				<clipPath id="SVGID_146_">
					<use xlink:href="#SVGID_145_"  style="overflow:visible;"/>
				</clipPath>
				<g class="st87">
					<path d="M706.3,291.9l9.4,7c-3,1.5-5.5,1.6-8,1.6c-1,0-2,0-3,0c-0.7,0-1.4,0-2.1,0l-9.4-7c0.7,0,1.4,0,2.1,0c1,0,2,0,3,0
						C700.9,293.5,703.4,293.3,706.3,291.9"/>
				</g>
			</g>
			<g class="st0">
				<defs>
					<path id="SVGID_147_" class="st0" d="M765.4,224.5l9.4,7c-4.3-1.1-9.5-1.1-15.4-1.1l-9.4-7C756,223.4,761.1,223.4,765.4,224.5z
						"/>
				</defs>
				<clipPath id="SVGID_148_">
					<use xlink:href="#SVGID_147_"  style="overflow:visible;"/>
				</clipPath>
				<g class="st88">
					<path d="M765.4,224.5l9.4,7c-4.3-1.1-9.5-1.1-15.4-1.1l-9.4-7C756,223.4,761.1,223.4,765.4,224.5"/>
				</g>
			</g>
			<g>
				<polygon points="768.5,222.3 777.9,229.2 777.9,230.4 768.4,223.4 				"/>
			</g>
			<g class="st0">
				<defs>
					<path id="SVGID_149_" class="st0" d="M774.7,235.7c-3.1-2.3-6.3-4.6-9.4-7c0.1-1.4,0.1-2.8,0.2-4.3l9.4,7
						C774.8,232.9,774.8,234.3,774.7,235.7z"/>
				</defs>
				<clipPath id="SVGID_150_">
					<use xlink:href="#SVGID_149_"  style="overflow:visible;"/>
				</clipPath>
				<g class="st89">
					<path class="st9" d="M765.4,224.5l9.4,7c-0.1,1.7-0.1,3.3-0.2,5c-0.1,1.6-0.1,3.2-0.2,4.8l-9.4-7c0.1-1.6,0.1-3.2,0.2-4.8
						C765.3,227.8,765.4,226.1,765.4,224.5"/>
				</g>
			</g>
			<g class="st0">
				<defs>
					<path id="SVGID_151_" class="st0" d="M774.7,235.7c0,0.2,0,0.5,0,0.7c-3.1-2.3-6.3-4.6-9.4-7c0-0.2,0-0.5,0-0.7
						C768.4,231.1,771.6,233.4,774.7,235.7z"/>
				</defs>
				<clipPath id="SVGID_152_">
					<use xlink:href="#SVGID_151_"  style="overflow:visible;"/>
				</clipPath>
				<g class="st90">
					<path class="st9" d="M765.4,224.5l9.4,7c-0.1,1.7-0.1,3.3-0.2,5c-0.1,1.6-0.1,3.2-0.2,4.8l-9.4-7c0.1-1.6,0.1-3.2,0.2-4.8
						C765.3,227.8,765.4,226.1,765.4,224.5"/>
				</g>
			</g>
			<g class="st0">
				<defs>
					<path id="SVGID_153_" class="st0" d="M744,278.8c-7.7,3.1-17.9,3.7-27.7,3.8c-3.1-2.3-6.3-4.6-9.4-7c9.8-0.1,19.9-0.6,27.7-3.8
						C737.4,273.9,741.2,276.7,744,278.8z"/>
				</defs>
				<clipPath id="SVGID_154_">
					<use xlink:href="#SVGID_153_"  style="overflow:visible;"/>
				</clipPath>
				<g class="st91">
					<path class="st16" d="M734.6,271.8l9.4,7c-7.8,3.1-17.9,3.7-27.7,3.8l-9.4-7C716.7,275.5,726.8,274.9,734.6,271.8"/>
				</g>
			</g>
			<g class="st0">
				<defs>
					<path id="SVGID_155_" class="st0" d="M772.2,241.6C772.2,241.6,772.2,241.6,772.2,241.6l-9.5-7c0,0,0,0,0,0
						C765.9,237,769,239.3,772.2,241.6C772.2,241.6,772.2,241.6,772.2,241.6z"/>
				</defs>
				<clipPath id="SVGID_156_">
					<use xlink:href="#SVGID_155_"  style="overflow:visible;"/>
				</clipPath>
				<g class="st92">
					<path class="st16" d="M765,234.3l9.4,7c-1.1,0.2-1.7,0.3-2.2,0.4l-9.4-7C763.4,234.6,763.9,234.5,765,234.3"/>
				</g>
			</g>
			<g class="st0">
				<defs>
					<path id="SVGID_157_" class="st0" d="M744,278.8c-3.1-2.3-6.3-4.6-9.4-7c0.8-0.4,1.7-0.9,2.6-1.5c0,0,0,0,0,0
						c3.1,2.3,6.3,4.6,9.4,7c0,0,0,0,0,0C745.8,277.8,744.8,278.4,744,278.8z"/>
				</defs>
				<clipPath id="SVGID_158_">
					<use xlink:href="#SVGID_157_"  style="overflow:visible;"/>
				</clipPath>
				<g class="st93">
					<path class="st16" d="M741.1,268.4l9.4,7c-1.6,0.5-2.8,1.2-3.8,1.9c-0.9,0.6-1.8,1.1-2.6,1.5l-9.4-7c0.8-0.4,1.7-0.9,2.6-1.5
						C738.3,269.6,739.4,268.9,741.1,268.4"/>
				</g>
			</g>
			<g class="st0">
				<defs>
					<path id="SVGID_159_" class="st0" d="M774.7,236.4c-0.1,1.6-0.1,3.2-0.2,4.8l-9.4-7c0.1-1.6,0.1-3.2,0.2-4.8
						C768.4,231.8,771.5,234.1,774.7,236.4z"/>
				</defs>
				<clipPath id="SVGID_160_">
					<use xlink:href="#SVGID_159_"  style="overflow:visible;"/>
				</clipPath>
				<g class="st94">
					<path class="st9" d="M765.4,224.5l9.4,7c-0.1,1.7-0.1,3.3-0.2,5c-0.1,1.6-0.1,3.2-0.2,4.8l-9.4-7c0.1-1.6,0.1-3.2,0.2-4.8
						C765.3,227.8,765.4,226.1,765.4,224.5"/>
				</g>
			</g>
			<g class="st0">
				<defs>
					<path id="SVGID_161_" class="st0" d="M772.2,241.6c-3.1-2.3-6.3-4.6-9.4-7c0.4-0.1,0.9-0.1,1.5-0.3c3.1,2.3,6.3,4.6,9.4,7
						c-3.1-2.3-6.3-4.6-9.4-7c0.2,0,0.4-0.1,0.7-0.1l9.4,7C773.4,241.4,772.8,241.5,772.2,241.6z"/>
				</defs>
				<clipPath id="SVGID_162_">
					<use xlink:href="#SVGID_161_"  style="overflow:visible;"/>
				</clipPath>
				<g class="st95">
					<path class="st16" d="M765,234.3l9.4,7c-1.1,0.2-1.7,0.3-2.2,0.4l-9.4-7C763.4,234.6,763.9,234.5,765,234.3"/>
				</g>
			</g>
			<g class="st0">
				<defs>
					<path id="SVGID_163_" class="st0" d="M735.7,274.5l9.4,7c-8.1,3.3-18.3,3.9-28.2,4l-9.4-7C717.3,278.4,727.6,277.8,735.7,274.5
						z"/>
				</defs>
				<clipPath id="SVGID_164_">
					<use xlink:href="#SVGID_163_"  style="overflow:visible;"/>
				</clipPath>
				<g class="st96">
					<path d="M735.7,274.5l9.4,7c-8.1,3.3-18.3,3.9-28.2,4l-9.4-7C717.3,278.4,727.6,277.8,735.7,274.5"/>
				</g>
			</g>
			<g>
				<polygon class="st97" points="762.8,234.7 772.2,241.6 772.4,244.6 763,237.6 				"/>
			</g>
			<g class="st0">
				<defs>
					<path id="SVGID_165_" class="st0" d="M750.5,275.4c-1.6,0.5-2.8,1.2-3.8,1.9c-3.1-2.3-6.3-4.6-9.4-7c1.1-0.7,2.2-1.4,3.8-1.9
						C743.9,270.5,747.7,273.3,750.5,275.4z"/>
				</defs>
				<clipPath id="SVGID_166_">
					<use xlink:href="#SVGID_165_"  style="overflow:visible;"/>
				</clipPath>
				<g class="st98">
					<path class="st16" d="M741.1,268.4l9.4,7c-1.6,0.5-2.8,1.2-3.8,1.9c-0.9,0.6-1.8,1.1-2.6,1.5l-9.4-7c0.8-0.4,1.7-0.9,2.6-1.5
						C738.3,269.6,739.4,268.9,741.1,268.4"/>
				</g>
			</g>
			<g class="st0">
				<defs>
					<path id="SVGID_167_" class="st0" d="M768.4,223.4l9.4,7c-0.1,2-0.2,4.1-0.3,6.1c-0.1,1.7-0.1,3.4-0.2,5.1l-9.4-7
						c0.1-1.7,0.2-3.4,0.2-5.1C768.3,227.5,768.3,225.4,768.4,223.4z"/>
				</defs>
				<clipPath id="SVGID_168_">
					<use xlink:href="#SVGID_167_"  style="overflow:visible;"/>
				</clipPath>
				<g class="st99">
					<path d="M768.4,223.4l9.4,7c-0.1,2-0.2,4.1-0.3,6.1c-0.1,1.7-0.1,3.4-0.2,5.1l-9.4-7c0.1-1.7,0.2-3.4,0.2-5.1
						C768.3,227.5,768.3,225.4,768.4,223.4"/>
				</g>
			</g>
			<g class="st0">
				<defs>
					<path id="SVGID_169_" class="st0" d="M741.2,271.4l9.4,7c-0.7,0.3-1.6,0.9-2.5,1.4c-1,0.6-2,1.2-3,1.7l-9.4-7
						c1-0.5,2.1-1.1,3-1.7C739.6,272.3,740.5,271.7,741.2,271.4z"/>
				</defs>
				<clipPath id="SVGID_170_">
					<use xlink:href="#SVGID_169_"  style="overflow:visible;"/>
				</clipPath>
				<g class="st100">
					<path d="M741.2,271.4l9.4,7c-0.7,0.3-1.6,0.9-2.5,1.4c-1,0.6-2,1.2-3,1.7l-9.4-7c1-0.5,2.1-1.1,3-1.7
						C739.6,272.3,740.5,271.7,741.2,271.4"/>
				</g>
			</g>
			<g class="st0">
				<defs>
					<path id="SVGID_171_" class="st0" d="M754.9,275.5c-1.4,0-2.9-0.1-4.3-0.1l-9.4-7c1.5,0,2.9,0.1,4.3,0.1c1.3,0,2.5,0,3.8,0.1
						c3.1,2.3,6.3,4.6,9.4,7C757.4,275.5,756.1,275.5,754.9,275.5z"/>
				</defs>
				<clipPath id="SVGID_172_">
					<use xlink:href="#SVGID_171_"  style="overflow:visible;"/>
				</clipPath>
				<g class="st101">
					<path class="st16" d="M749.8,268.6l9.4,7c-1.5-0.1-2.9-0.1-4.4-0.1c-1.4,0-2.9-0.1-4.3-0.1l-9.4-7c1.5,0,2.9,0.1,4.3,0.1
						C746.9,268.5,748.3,268.6,749.8,268.6"/>
				</g>
			</g>
			<g class="st0">
				<defs>
					<path id="SVGID_173_" class="st0" d="M758.6,275.6c-0.1,0-0.1-0.1-0.2-0.1c0,0-0.1,0-0.1-0.1c-0.1-0.1-0.3-0.2-0.4-0.3
						c-0.1,0-0.1-0.1-0.2-0.1c0,0-0.1-0.1-0.2-0.1c-0.1-0.1-0.2-0.2-0.3-0.2c-2.7-2-5.4-4-8.2-6c0.2,0,0.4,0,0.6,0l9.4,7
						C759,275.6,758.8,275.6,758.6,275.6z"/>
				</defs>
				<clipPath id="SVGID_174_">
					<use xlink:href="#SVGID_173_"  style="overflow:visible;"/>
				</clipPath>
				<g class="st102">
					<path class="st16" d="M749.8,268.6l9.4,7c-1.5-0.1-2.9-0.1-4.4-0.1c-1.4,0-2.9-0.1-4.3-0.1l-9.4-7c1.5,0,2.9,0.1,4.3,0.1
						C746.9,268.5,748.3,268.6,749.8,268.6"/>
				</g>
			</g>
			<g class="st0">
				<defs>
					<path id="SVGID_175_" class="st0" d="M749.7,271.6l9.4,7c-1.5-0.1-2.9-0.1-4.4-0.1c-1.4,0-2.7,0-4.1-0.1l-9.4-7
						c1.4,0,2.7,0.1,4.1,0.1C746.7,271.5,748.2,271.5,749.7,271.6z"/>
				</defs>
				<clipPath id="SVGID_176_">
					<use xlink:href="#SVGID_175_"  style="overflow:visible;"/>
				</clipPath>
				<g class="st103">
					<path d="M749.7,271.6l9.4,7c-1.5-0.1-2.9-0.1-4.4-0.1c-1.4,0-2.7,0-4.1-0.1l-9.4-7c1.4,0,2.7,0.1,4.1,0.1
						C746.7,271.5,748.2,271.5,749.7,271.6"/>
				</g>
			</g>
			<g>
				<polygon class="st104" points="762.9,254.7 772.3,261.6 772,264.6 762.5,257.6 				"/>
			</g>
			<g>
				<polygon points="764.6,258 774,264.9 772,264.6 762.5,257.6 				"/>
			</g>
			<g class="st0">
				<defs>
					<path id="SVGID_177_" class="st0" d="M767.8,275.1c-2.7,0.3-5.5,0.5-8.6,0.5l-9.4-7c3,0,5.9-0.2,8.6-0.5
						C761.5,270.4,764.7,272.7,767.8,275.1z"/>
				</defs>
				<clipPath id="SVGID_178_">
					<use xlink:href="#SVGID_177_"  style="overflow:visible;"/>
				</clipPath>
				<g class="st105">
					<path class="st16" d="M764.3,267.5l9.4,7c-1.5,0.1-3,0.3-4.5,0.4c-3.2,0.3-6.4,0.7-10,0.7l-9.4-7c3.6,0,6.9-0.3,10-0.7
						C761.4,267.8,762.8,267.6,764.3,267.5"/>
				</g>
			</g>
			<g>
				<polygon class="st106" points="764.6,258 774,264.9 773.8,274.5 764.3,267.5 				"/>
			</g>
			<g class="st0">
				<defs>
					<path id="SVGID_179_" class="st0" d="M767.8,275.1c-0.1,0-0.1-0.1-0.2-0.1c0,0-0.1,0-0.1-0.1c-0.1-0.1-0.2-0.1-0.3-0.2
						c-0.1,0-0.1-0.1-0.2-0.1c-0.2-0.2-0.5-0.4-0.7-0.5c-2.7-2-5.3-3.9-8-5.9c0.5,0,1-0.1,1.5-0.2c1.5-0.2,3-0.3,4.5-0.4l9.4,7
						c-1.5,0.1-3,0.3-4.5,0.4C768.8,275,768.3,275,767.8,275.1z"/>
				</defs>
				<clipPath id="SVGID_180_">
					<use xlink:href="#SVGID_179_"  style="overflow:visible;"/>
				</clipPath>
				<g class="st107">
					<path class="st16" d="M764.3,267.5l9.4,7c-1.5,0.1-3,0.3-4.5,0.4c-3.2,0.3-6.4,0.7-10,0.7l-9.4-7c3.6,0,6.9-0.3,10-0.7
						C761.4,267.8,762.8,267.6,764.3,267.5"/>
				</g>
			</g>
			<g class="st0">
				<defs>
					<path id="SVGID_181_" class="st0" d="M765.8,270.4l9.4,7c-1.9,0.1-3.8,0.3-5.7,0.5c-3.2,0.3-6.6,0.7-10.4,0.7l-9.4-7
						c3.8,0,7.1-0.3,10.4-0.7C762,270.7,763.9,270.5,765.8,270.4z"/>
				</defs>
				<clipPath id="SVGID_182_">
					<use xlink:href="#SVGID_181_"  style="overflow:visible;"/>
				</clipPath>
				<g class="st108">
					<path d="M765.8,270.4l9.4,7c-1.9,0.1-3.8,0.3-5.7,0.5c-3.2,0.3-6.6,0.7-10.4,0.7l-9.4-7c3.8,0,7.1-0.3,10.4-0.7
						C762,270.7,763.9,270.5,765.8,270.4"/>
				</g>
			</g>
			<g class="st0">
				<defs>
					<path id="SVGID_183_" class="st0" d="M811.6,254.5l9.4,7c-8.1,0-16.2,0.1-24.3,0.1c-8.1,0-16.3,0-24.4,0.1l-9.4-7
						c8.1-0.1,16.3-0.1,24.4-0.1C795.4,254.5,803.5,254.5,811.6,254.5z"/>
				</defs>
				<clipPath id="SVGID_184_">
					<use xlink:href="#SVGID_183_"  style="overflow:visible;"/>
				</clipPath>
				<g class="st109">
					<path class="st16" d="M811.6,254.5l9.4,7c-8.1,0-16.2,0.1-24.3,0.1c-8.1,0-16.3,0-24.4,0.1l-9.4-7c8.1-0.1,16.3-0.1,24.4-0.1
						C795.4,254.5,803.5,254.5,811.6,254.5"/>
				</g>
			</g>
			<g>
				<polygon points="767.5,257.6 777,264.6 776.6,277.3 767.2,270.3 				"/>
			</g>
			<g>
				<polygon points="767.2,270.3 776.6,277.3 775.2,277.4 765.8,270.4 				"/>
			</g>
			<g class="st0">
				<defs>
					<path id="SVGID_185_" class="st0" d="M811.8,257.4l9.4,7c-8.4,0.1-16.5,0.1-24.6,0.1c-6.6,0-13.1,0-19.7,0.1l-9.4-7
						c6.6,0,13.1-0.1,19.7-0.1C795.3,257.5,803.5,257.5,811.8,257.4z"/>
				</defs>
				<clipPath id="SVGID_186_">
					<use xlink:href="#SVGID_185_"  style="overflow:visible;"/>
				</clipPath>
				<g class="st110">
					<path d="M811.8,257.4l9.4,7c-8.4,0.1-16.5,0.1-24.6,0.1c-6.6,0-13.1,0-19.7,0.1l-9.4-7c6.6,0,13.1-0.1,19.7-0.1
						C795.3,257.5,803.5,257.5,811.8,257.4"/>
				</g>
			</g>
			<g class="st0">
				<defs>
					<path id="SVGID_187_" class="st0" d="M826.9,260.5c-1.9,0.3-3.9,0.6-5.9,0.9l-9.4-7c0,0,0,0,0,0c3.1,2.3,6.3,4.6,9.4,6.9
						c-3.1-2.3-6.3-4.6-9.4-6.9c2-0.3,4-0.6,5.9-0.9c0,0,0,0,0,0C820.6,255.9,823.8,258.2,826.9,260.5
						C826.9,260.5,826.9,260.5,826.9,260.5z"/>
				</defs>
				<clipPath id="SVGID_188_">
					<use xlink:href="#SVGID_187_"  style="overflow:visible;"/>
				</clipPath>
				<g class="st111">
					<path class="st16" d="M834,250.4l9.4,7c-5.2,1.6-10.7,2.4-16.6,3.2c-1.9,0.3-3.9,0.6-5.9,0.9l-9.4-7c2-0.3,4-0.6,5.9-0.9
						C823.3,252.8,828.8,252,834,250.4"/>
				</g>
			</g>
			<g class="st0">
				<defs>
					<path id="SVGID_189_" class="st0" d="M843.5,257.3c-5.2,1.6-10.7,2.4-16.5,3.2c-3.1-2.3-6.3-4.6-9.4-7
						c5.8-0.8,11.3-1.6,16.5-3.2C835.1,251.1,842.4,256.5,843.5,257.3z"/>
				</defs>
				<clipPath id="SVGID_190_">
					<use xlink:href="#SVGID_189_"  style="overflow:visible;"/>
				</clipPath>
				<g class="st112">
					<path class="st16" d="M834,250.4l9.4,7c-5.2,1.6-10.7,2.4-16.6,3.2c-1.9,0.3-3.9,0.6-5.9,0.9l-9.4-7c2-0.3,4-0.6,5.9-0.9
						C823.3,252.8,828.8,252,834,250.4"/>
				</g>
			</g>
			<g class="st0">
				<defs>
					<path id="SVGID_191_" class="st0" d="M847,256c-1.2,0.4-2.4,0.9-3.5,1.3l-9.4-7c1.2-0.4,2.3-0.9,3.5-1.3
						C840.7,251.4,843.9,253.7,847,256z"/>
				</defs>
				<clipPath id="SVGID_192_">
					<use xlink:href="#SVGID_191_"  style="overflow:visible;"/>
				</clipPath>
				<g class="st113">
					<path class="st16" d="M846.2,245.8l9.4,7c-1.6,0.6-3.2,1.2-4.8,1.8c-2.5,0.9-5,1.8-7.4,2.7l-9.4-7c2.4-0.9,4.9-1.8,7.4-2.7
						C843,247,844.6,246.4,846.2,245.8"/>
				</g>
			</g>
			<g class="st0">
				<defs>
					<path id="SVGID_193_" class="st0" d="M834.9,253.2l9.4,7c-5.5,1.7-11.2,2.5-17.1,3.3c-2,0.3-4,0.6-6,0.9l-9.4-7
						c2-0.3,4-0.6,6-0.9C823.8,255.7,829.4,254.9,834.9,253.2z"/>
				</defs>
				<clipPath id="SVGID_194_">
					<use xlink:href="#SVGID_193_"  style="overflow:visible;"/>
				</clipPath>
				<g class="st114">
					<path d="M834.9,253.2l9.4,7c-5.5,1.7-11.2,2.5-17.1,3.3c-2,0.3-4,0.6-6,0.9l-9.4-7c2-0.3,4-0.6,6-0.9
						C823.8,255.7,829.4,254.9,834.9,253.2"/>
				</g>
			</g>
			<g class="st0">
				<defs>
					<path id="SVGID_195_" class="st0" d="M846.2,245.8l9.4,7c-2.4-1.2-5.4-2-8.4-2.7c-1.6-0.4-3.2-0.8-4.6-1.2
						c-12.2-3.8-28.3-4.5-44.9-4.5c-5.2,0-10.4,0.1-15.6,0.1c-3.3,0-6.5,0.1-9.7,0.1l-9.4-7c3.2,0,6.5-0.1,9.7-0.1
						c5.2-0.1,10.4-0.1,15.6-0.1c16.6,0,32.6,0.7,44.9,4.5c1.5,0.5,3,0.8,4.6,1.2C840.8,243.9,843.8,244.6,846.2,245.8z"/>
				</defs>
				<clipPath id="SVGID_196_">
					<use xlink:href="#SVGID_195_"  style="overflow:visible;"/>
				</clipPath>
				<g class="st115">
					<path d="M846.2,245.8l9.4,7c-2.4-1.2-5.4-2-8.4-2.7c-1.6-0.4-3.2-0.8-4.6-1.2c-12.2-3.8-28.3-4.5-44.9-4.5
						c-5.2,0-10.4,0.1-15.6,0.1c-3.3,0-6.5,0.1-9.7,0.1l-9.4-7c3.2,0,6.5-0.1,9.7-0.1c5.2-0.1,10.4-0.1,15.6-0.1
						c16.6,0,32.6,0.7,44.9,4.5c1.5,0.5,3,0.8,4.6,1.2C840.8,243.9,843.8,244.6,846.2,245.8"/>
				</g>
			</g>
			<g class="st0">
				<defs>
					<path id="SVGID_197_" class="st0" d="M847,256c-3.1-2.3-6.3-4.6-9.4-7c1.3-0.5,2.5-0.9,3.8-1.4c1.6-0.6,3.2-1.2,4.8-1.8l9.4,7
						c-1.6,0.6-3.2,1.2-4.8,1.8C849.6,255.1,848.3,255.5,847,256z"/>
				</defs>
				<clipPath id="SVGID_198_">
					<use xlink:href="#SVGID_197_"  style="overflow:visible;"/>
				</clipPath>
				<g class="st116">
					<path class="st16" d="M846.2,245.8l9.4,7c-1.6,0.6-3.2,1.2-4.8,1.8c-2.5,0.9-5,1.8-7.4,2.7l-9.4-7c2.4-0.9,4.9-1.8,7.4-2.7
						C843,247,844.6,246.4,846.2,245.8"/>
				</g>
			</g>
			<g>
				<path class="st59" d="M837.8,243.2c3,0.7,6,1.5,8.4,2.7c-1.6,0.6-3.2,1.2-4.8,1.8c-2.5,0.9-5,1.8-7.4,2.7
					c-5.2,1.6-10.7,2.4-16.6,3.2c-1.9,0.3-3.9,0.6-5.9,0.9c-8.1,0-16.2,0.1-24.3,0.1c-8.1,0-16.3,0-24.4,0.1l-0.3,2.9l2,0.4
					l-0.3,9.6c-1.5,0.1-3,0.3-4.5,0.4c-3.2,0.3-6.4,0.7-10,0.7c-1.5-0.1-2.9-0.1-4.4-0.1c-1.4,0-2.9-0.1-4.3-0.1
					c-1.6,0.5-2.8,1.2-3.8,1.9c-0.9,0.6-1.8,1.1-2.6,1.5c-7.8,3.1-17.9,3.7-27.7,3.8l-14.6,14.9c-6.7,6.7-12.8,12.9-18.8,19.1
					c-12.2,12.5-24.7,25.4-37,38.1c-0.8,0.5-1.6,0.7-2.5,0.7c-3.9,0-8.5-3.8-11.7-6.4c-1-0.8-1.9-1.6-2.7-2.1
					c-0.4-0.3-0.9-0.6-1.4-0.9c-1.6-0.9-2.8-1.7-3.1-2.7c5.6-14,6-32.4,6.5-51.8c0-2,0.1-4.1,0.2-6.2l0-1.5h-17.4
					c-1.8,1.9-3.1,3.3-4.4,4.7c-1.3,1.4-2.6,2.8-4,4.2l-2.5,2.6l3.6-0.1c1.5,0,1.9,0.1,2.3,0.4c-3.8,3.1-7.6,6.2-11.4,9.2
					c-3.8,3.1-7.6,6.2-11.4,9.3c-0.6,0.5-1.3,1.1-2,1.7c-2,1.9-3.5,3.2-5.4,3.2c-0.6,0-1.2-0.1-1.8-0.4c-1.9-0.9-8.1-5-8.7-6.1
					c-0.5-1.7,0.3-4.5,0.8-6.3c0.8-3.5,1.6-6.9,2.4-10.3c0.9-4,1.8-8,2.8-12c3.1-5,11.8-7.8,15.4-8.8l2.7-0.7l-1.9-1.7
					c-0.3-0.9-0.6-4.3,0.1-15.4h2l0.2-8.1h-2l0.4-15h1.1l0.1-3.2h-1.4c-1.9-1.2-4-2-6.1-2.7c-3.4-1.3-6.6-2.5-8.4-5.1
					c-2-2.7-2.5-7.8-3-12.6c-0.2-2.2-0.4-4.2-0.8-6.2c-0.1-0.5-0.2-1.1-0.4-1.8c-0.6-2.6-2-8.8-0.4-10.2c2-1.7,8.7-5.8,11.1-5.8
					c2.8,0.6,8.9,6.5,12.9,10.3c2,1.9,3.7,3.5,4.8,4.5c1.9,1.6,3.8,3.2,5.7,4.8c1.5,1.3,3.1,2.5,4.6,3.8l-5.5,0.6l2.2,2.5
					c1.2,1.4,2.5,2.8,3.7,4.1c1.2,1.4,2.5,2.7,3.7,4.1l18.1,0.5l0.1-1.5c0.1-3.1,0.3-6.3,0.5-9.7c0.6-10,1.2-20.3-0.1-28.6
					c-0.4-2.2-0.7-4.4-1.1-6.6c-0.4-2.2-0.7-4.4-1.1-6.7c-0.3-1.3-0.7-2.6-1-3.9c-0.3-1-0.5-2-0.8-3c2.6-2.5,14.8-11.1,16.8-11.7
					c0.6-0.2,1.3-0.3,1.9-0.3c1.1,0,2.2,0.3,3.3,0.9l1.9,2.1c16.5,17.9,33.6,36.4,50.4,54.7l4.1,4.4c1.6,1.8,3.2,3.6,4.8,5.3
					c1.6,1.8,3.2,3.6,4.8,5.4l14.3,1.6c2.2,0.5,4.4,1,6.6,1.5c2.2,0.5,4.4,1,6.6,1.5c1.1,0.5,2.1,1,3.2,1.5c1.2,0.5,2.3,1.1,3.4,1.6
					l8.2,0.1c5.9,0,11,0,15.4,1.1c-0.1,1.7-0.1,3.3-0.2,5c-0.1,1.6-0.1,3.2-0.2,4.8c-1.1,0.2-1.7,0.3-2.2,0.4l0.2,3
					c3.2,0,6.5-0.1,9.7-0.1c5.2-0.1,10.4-0.1,15.6-0.1c16.6,0,32.6,0.7,44.9,4.5C834.6,242.4,836.2,242.8,837.8,243.2z"/>
			</g>
			<g class="st0">
				<defs>
					<path id="SVGID_199_" class="st0" d="M849.7,244.5l9.4,7c0.2,0.1,0.4,0.3,0.5,0.4l-9.4-7C850.1,244.7,849.9,244.6,849.7,244.5z
						"/>
				</defs>
				<clipPath id="SVGID_200_">
					<use xlink:href="#SVGID_199_"  style="overflow:visible;"/>
				</clipPath>
				<g class="st117">
					<path d="M849.7,244.5l9.4,7c0.2,0.1,0.4,0.3,0.5,0.4l-9.4-7C850.1,244.7,849.9,244.6,849.7,244.5"/>
				</g>
			</g>
			<g class="st0">
				<defs>
					<path id="SVGID_201_" class="st0" d="M849.8,247.6l9.4,7c-2.5,0.9-5,1.9-7.5,2.8c-2.5,0.9-5,1.8-7.4,2.8l-9.4-7
						c2.5-0.9,5-1.9,7.4-2.8C844.8,249.5,847.3,248.6,849.8,247.6z"/>
				</defs>
				<clipPath id="SVGID_202_">
					<use xlink:href="#SVGID_201_"  style="overflow:visible;"/>
				</clipPath>
				<g class="st118">
					<path d="M849.8,247.6l9.4,7c-2.5,0.9-5,1.9-7.5,2.8c-2.5,0.9-5,1.8-7.4,2.8l-9.4-7c2.5-0.9,5-1.9,7.4-2.8
						C844.8,249.5,847.3,248.6,849.8,247.6"/>
				</g>
			</g>
			<g>
				<polygon points="850.7,247.3 860.2,254.2 859.2,254.6 849.8,247.6 				"/>
			</g>
			<g>
				<polygon points="850.3,244.9 859.7,251.8 860.2,254.2 850.7,247.3 				"/>
			</g>
			<g>
				<path d="M850.3,244.9l0.5,2.4l-1,0.4c-2.5,0.9-5,1.9-7.5,2.8c-2.5,0.9-5,1.8-7.4,2.8c-5.5,1.7-11.2,2.5-17.1,3.3
					c-2,0.3-4,0.6-6,0.9c-8.4,0.1-16.5,0.1-24.6,0.1c-6.6,0-13.1,0-19.7,0.1l-0.3,12.7l-1.4,0.1c-1.9,0.1-3.8,0.3-5.7,0.5
					c-3.2,0.3-6.6,0.7-10.4,0.7c-1.5-0.1-2.9-0.1-4.4-0.1c-1.4,0-2.7,0-4.1-0.1c-0.7,0.3-1.6,0.9-2.5,1.4c-1,0.6-2,1.2-3,1.7
					c-8.1,3.3-18.3,3.9-28.2,4l-8.3,8.8c3,0,5.5,0.2,7.1,1.3l0.8,0.6l-0.2,1c-0.1,0.6-0.3,1-0.5,1.6c-3,1.5-5.5,1.6-8,1.6
					c-1,0-2,0-3,0c-0.7,0-1.4,0-2.1,0c-5.9,6.1-11.8,12.1-17.7,18.2c-12.2,12.5-24.8,25.5-37.2,38.3c-1.7,1.1-3.1,1.5-4.6,1.5
					c-4.9,0-9.9-4.1-13.6-7.1c-1-0.8-1.8-1.5-2.5-2c-0.3-0.2-0.8-0.5-1.2-0.7c-1.8-1-4.3-2.5-4.6-5.3c5.6-14.2,6-32.5,6.5-51.8
					c0-1.6,0.1-3.1,0.1-4.7h-13.2c-1.1,1.2-2.3,2.5-3.4,3.7c-0.7,0.7-1.3,1.4-2,2.1c1,0.4,1.7,1.1,2.3,2.1l0.7,1l-0.9,0.9
					c-4.7,4.2-8.6,7.4-12.5,10.5c-3.8,3.1-7.6,6.2-11.5,9.3c-0.6,0.4-1.1,1-1.7,1.6c-1.8,1.7-4.2,4.1-7.5,4.1c-0.9,0-1.9-0.2-3-0.7
					c-0.1-0.1-9.5-5.2-10.2-7.9c-0.7-2.5,0.2-5.8,0.7-7.9c0.8-3.4,1.6-6.8,2.3-10.2c0.9-4.1,1.9-8.2,2.8-12.3
					c3.3-5.8,10.9-8.9,16-10.4c-0.4-2.3-0.4-6.7,0.2-16l0.1-2.5h1.9l0.1-2.2h-2l0.5-19.1c-1.4-0.7-3-1.3-4.5-1.9
					c-3.6-1.4-7.4-2.8-9.7-6.1c-2.4-3.4-3-8.8-3.5-14c-0.2-2.1-0.4-4.1-0.7-5.9c-0.1-0.4-0.2-1-0.4-1.7c-1-4.2-2.4-10.5,0.5-13.1
					c1-0.9,8.8-6.6,13.1-6.6c0.3,0,0.6,0,0.9,0.1c3,0.7,7.8,5.2,13.9,11c1.9,1.8,3.6,3.4,4.7,4.3c1.9,1.6,3.8,3.2,5.7,4.8
					c1.9,1.6,3.8,3.2,5.7,4.8l1.1,0.9l-0.9,1.1c-0.3,0.4-0.6,0.8-0.9,1.2c-0.3,0.4-0.6,0.7-0.9,1.1c0.2,1,0.8,1.6,1.3,2.2
					c1.1,1.2,2.2,2.4,3.3,3.6h13.5c0.1-2.7,0.3-5.4,0.4-8.3c0.6-9.8,1.2-20,0-27.9c-0.4-2.2-0.7-4.4-1.1-6.6
					c-0.4-2.2-0.7-4.4-1.1-6.6c-0.3-1.2-0.6-2.4-1-3.7c-0.3-1.3-0.7-2.5-1-3.8c1.6-3.3,16.5-13.7,19-14.6c0.9-0.3,1.9-0.4,2.9-0.4
					c1.7,0,3.4,0.5,4.9,1.4l2.4,2.5c16.4,17.7,33.3,36.1,49.9,54.2c0.5,0,0.9,0,1.4-0.1c1.3-0.1,2.6-0.1,3.9-0.1
					c2.9,0,5.6,0.3,7.3,1.4l0.8,0.5l-0.2,1c-0.1,0.6-0.3,1-0.5,1.6c-2.8,1.4-5.1,1.5-7.4,1.5c1.3,1.5,2.6,2.9,3.9,4.3
					c1.5,1.6,3,3.3,4.4,4.9l13,1.2c2.2,0.5,4.5,1,6.7,1.5c2.2,0.5,4.4,1,6.7,1.5c1.4,0.6,2.5,1.1,3.7,1.6c1,0.5,2.1,1,3.1,1.4h7.4
					c6.6,0,12.3,0,17.3,1.6l1.1,0.3l-0.1,1.1c-0.1,2-0.2,4.1-0.3,6.1c-0.1,1.7-0.1,3.4-0.2,5.1c1.6,0,3.2,0,4.8-0.1
					c5.2-0.1,10.5-0.1,15.7-0.1c16.8,0,33.1,0.7,45.7,4.7c1.4,0.4,2.9,0.8,4.5,1.2C842.8,241.3,847.2,242.4,850.3,244.9z
					 M841.4,247.6c1.6-0.6,3.2-1.2,4.8-1.8c-2.4-1.2-5.4-2-8.4-2.7c-1.6-0.4-3.2-0.8-4.6-1.2c-12.2-3.8-28.3-4.5-44.9-4.5
					c-5.2,0-10.4,0.1-15.6,0.1c-3.3,0-6.5,0.1-9.7,0.1l-0.2-3c0.6-0.1,1.2-0.2,1.7-0.3c0.6-1.7,0.7-3.3,0.7-4.9
					c0.1-1.7,0.1-3.3,0.2-5c-4.3-1.1-9.5-1.1-15.4-1.1h-8c-1.4-0.6-2.5-1.1-3.7-1.7c-1.1-0.5-2.2-1-3.2-1.5c-2.2-0.5-4.4-1-6.6-1.5
					c-2.2-0.5-4.4-1-6.6-1.5l-13.9-1.2c-2-2.2-3.6-4-5.1-5.8c-1.6-1.8-3.2-3.6-4.8-5.3l-3.8-4c-17-18.7-34.1-37.2-50.6-55.1
					l-1.9-2.1c-1-0.6-2.2-0.9-3.3-0.9c-0.6,0-1.3,0.1-1.9,0.3c-2,0.7-14.2,9.3-16.8,11.7c0.3,1,0.5,2,0.8,3c0.3,1.3,0.7,2.5,1,3.9
					c0.4,2.3,0.8,4.5,1.1,6.7c0.4,2.2,0.7,4.4,1.1,6.6c1.3,8.3,0.7,18.6,0.1,28.6c-0.2,3.4-0.4,6.7-0.5,9.7l-0.1,1.5h-17.7
					c-1.7-1.9-2.9-3.2-4.1-4.6c-1.2-1.4-2.5-2.7-3.7-4.1l-2.2-2.5h5c-1-1.8-2.6-3.1-4.1-4.4c-1.9-1.6-3.8-3.2-5.7-4.8
					c-1.2-0.9-2.9-2.6-4.8-4.5c-4-3.9-10.1-9.7-12.6-10.3c-2.7,0-9.4,4.1-11.4,5.8c-1.6,1.4-0.2,7.5,0.4,10.2
					c0.2,0.7,0.3,1.3,0.4,1.8c0.3,1.9,0.6,4,0.8,6.2c0.5,4.8,1,9.8,3,12.6c1.8,2.6,5,3.8,8.4,5.1c2.1,0.8,4.2,1.6,6.1,2.7h1.4
					l-0.1,3.2h-1.1l-0.4,15h2l-0.2,8.1h-2c-0.7,11.1-0.4,14.5-0.1,15.4l1.9,1.7l-2.7,0.7c-3.6,1-12.3,3.8-15.4,8.8
					c-0.9,4-1.8,8-2.8,12c-0.8,3.4-1.6,6.7-2.3,10.1c-0.5,2-1.3,4.8-0.8,6.5c0.6,1.1,6.7,5.2,8.7,6.1c0.6,0.3,1.2,0.4,1.8,0.4
					c1.8,0,3.4-1.3,5.4-3.2c0.7-0.6,1.3-1.2,2-1.7c3.8-3.1,7.6-6.2,11.4-9.3c3.8-3.1,7.6-6.2,11.4-9.2c-0.4-0.3-0.8-0.5-1.8-0.5
					l-4,0.2l2.5-2.6c1.3-1.4,2.6-2.8,4-4.2c1.3-1.4,2.6-2.8,3.9-4.2l17.9-0.5l0,1.5c-0.1,2.1-0.1,4.1-0.2,6.2
					c-0.5,19.4-0.9,37.8-6.5,51.8c0.3,1.1,1.5,1.8,3.1,2.7c0.5,0.3,1,0.6,1.4,0.9c0.8,0.6,1.7,1.3,2.7,2.1c3.3,2.7,7.9,6.4,11.7,6.4
					c0.9,0,1.8-0.2,2.5-0.7c12.3-12.7,24.9-25.6,37-38.1c6.1-6.2,12.1-12.4,18.2-18.7l14.7-15.3c10.4-0.1,20.6-0.6,28.4-3.8
					c0.8-0.4,1.7-0.9,2.6-1.5c1.1-0.7,2.2-1.4,3.3-1.8c2.1-0.1,3.5,0,4.9,0c1.5,0,2.9,0,4.4,0.1c3.6,0,6.9-0.3,10-0.7
					c1.5-0.2,3-0.3,4.5-0.4l0.3-9.6l-2-0.4l0.3-2.9c8.1-0.1,16.3-0.1,24.4-0.1c8.1,0,16.2-0.1,24.3-0.1c2-0.3,4-0.6,5.9-0.9
					c5.8-0.8,11.3-1.6,16.6-3.2C836.4,249.5,838.9,248.5,841.4,247.6 M697.4,200.8c-0.7,0-1.5,0.1-2.1,0.1h3.8c0.3,0,0.5,0,0.8,0
					c1.3,0,2.7,0,3.9-0.1c-0.8-0.1-1.7-0.1-2.6-0.1C699.8,200.7,698.5,200.8,697.4,200.8 M699.4,290.3c-0.9,0-1.9,0-2.8,0.1
					l-1.9,0.1c0.2,0,0.4,0,0.7,0c1,0,2,0,3,0c1.1,0,2.2,0,3.2-0.1C700.9,290.3,700.1,290.3,699.4,290.3"/>
			</g>
		</g>
	</g>
</g>
<g id="TÃ_xA9_glalap_x5F_1">
	<g>
		<g class="st0">
			<g>
				<polygon points="539.5,35.5 548.9,42.5 282.7,456.6 273.2,449.6 				"/>
			</g>
			<g>
				<polygon points="587.7,66.2 597.1,73.2 548.9,42.5 539.5,35.5 				"/>
			</g>
			<g>
				<polygon class="st17" points="321.5,480.3 330.9,487.3 282.7,456.6 273.2,449.6 				"/>
			</g>
			<g>
				<polygon class="st119" points="587.7,66.2 597.1,73.2 330.9,487.3 321.5,480.3 				"/>
			</g>
			<g>
				<polygon class="st59" points="539.5,35.5 587.7,66.2 321.5,480.3 273.2,449.6 				"/>
			</g>
			<g>
				<polygon points="322.3,484.4 331.7,491.4 278.6,457.5 269.2,450.6 				"/>
			</g>
			<g>
				<polygon points="591.8,65.3 601.2,72.2 331.7,491.4 322.3,484.4 				"/>
			</g>
			<g>
				<path d="M538.7,31.4l53.1,33.8L322.3,484.4l-53.1-33.8l0.8-1.3L538.7,31.4z M321.5,480.3L587.7,66.2l-48.2-30.7L273.2,449.6
					L321.5,480.3"/>
			</g>
		</g>
	</g>
</g>
<g>
</g>
</svg>
