<svg xmlns="http://www.w3.org/2000/svg" viewBox="0 0 448 619.5"><defs><style>.a{fill:#0078b9;}.b{font-size:131px;fill:#fff;font-family:ArialMT, Arial;}.c{letter-spacing:-0.03711em;}</style></defs><path class="a" d="M448,73.143v45.714C448,159.143,347.667,192,224,192S0,159.143,0,118.857V73.143C0,32.857,100.333,0,224,0S448,32.857,448,73.143ZM448,162V264.857C448,305.143,347.667,338,224,338S0,305.143,0,264.857V162c48.125,33.143,136.208,48.572,224,48.572S399.874,195.143,448,162Zm0,141V405.857C448,446.143,347.667,479,224,479S0,446.143,0,405.857V303c48.125,33.143,136.208,48.572,224,48.572S399.874,336.143,448,303Zm0,140.5V546.357c0,40.286-100.333,73.143-224,73.143S0,586.643,0,546.357V443.5c48.125,33.143,136.208,48.572,224,48.572S399.874,476.643,448,443.5Z"/><text class="b" transform="translate(94.99951 317.75)">SQ<tspan class="c" x="189.27197" y="0">L</tspan></text></svg>